<svg width="744" height="643" viewBox="0 0 558 482.25" xmlns="http://www.w3.org/2000/svg" xmlns:xlink="http://www.w3.org/1999/xlink">
<g id="graph0" class="graph" transform="translate(41.52547640154271,480.69660982110577) scale(0.3883475447235606)">
<title>g</title>
<polygon fill="white" stroke="transparent" points="-4,4 -4,-1237.8 1227,-1237.8 1227,4 -4,4"/>
<!-- state0 -->
<g id="node1" class="node">
<title>state0</title>
<path fill="white" stroke="black" d="M746,-1031.3C746,-1031.3 1049,-1031.3 1049,-1031.3 1055,-1031.3 1061,-1037.3 1061,-1043.3 1061,-1043.3 1061,-1221.3 1061,-1221.3 1061,-1227.3 1055,-1233.3 1049,-1233.3 1049,-1233.3 746,-1233.3 746,-1233.3 740,-1233.3 734,-1227.3 734,-1221.3 734,-1221.3 734,-1043.3 734,-1043.3 734,-1037.3 740,-1031.3 746,-1031.3"/>
<polygon fill="white" stroke="transparent" points="742,-1035.3 742,-1229.3 1053,-1229.3 1053,-1035.3 742,-1035.3"/>
<polygon fill="black" stroke="transparent" points="744.5,-1205.3 744.5,-1227.3 1051.5,-1227.3 1051.5,-1205.3 744.5,-1205.3"/>
<text text-anchor="start" x="864.39" y="-1211.7" font-family="Courier New" font-size="14.00" fill="white">State #0</text>
<text text-anchor="start" x="747.29" y="-1187.7" font-family="Courier New" font-size="14.00">F -&gt; • LPAR E RPAR </text>
<polygon fill="lightgrey" stroke="transparent" points="928.5,-1181.3 928.5,-1203.3 1051.5,-1203.3 1051.5,-1181.3 928.5,-1181.3"/>
<text text-anchor="start" x="931.19" y="-1187.7" font-family="Courier New" font-size="14.00">EOF PLUS MULT </text>
<text text-anchor="start" x="747.5" y="-1163.7" font-family="Courier New" font-size="14.00">E -&gt; • T </text>
<polygon fill="lightgrey" stroke="transparent" points="928.5,-1157.3 928.5,-1179.3 1051.5,-1179.3 1051.5,-1157.3 928.5,-1157.3"/>
<text text-anchor="start" x="931.5" y="-1163.7" font-family="Courier New" font-size="14.00">EOF PLUS </text>
<text text-anchor="start" x="747.5" y="-1139.7" font-family="Courier New" font-size="14.00">T -&gt; • F </text>
<polygon fill="lightgrey" stroke="transparent" points="928.5,-1133.3 928.5,-1155.3 1051.5,-1155.3 1051.5,-1133.3 928.5,-1133.3"/>
<text text-anchor="start" x="931.19" y="-1139.7" font-family="Courier New" font-size="14.00">EOF PLUS MULT </text>
<text text-anchor="start" x="747.5" y="-1115.7" font-family="Courier New" font-size="14.00">$START -&gt; • E EOF </text>
<polygon fill="lightgrey" stroke="transparent" points="928.5,-1109.3 928.5,-1131.3 1051.5,-1131.3 1051.5,-1109.3 928.5,-1109.3"/>
<text text-anchor="start" x="931.5" y="-1115.7" font-family="Courier New" font-size="14.00">EOF </text>
<text text-anchor="start" x="747.5" y="-1091.7" font-family="Courier New" font-size="14.00">F -&gt; • ID </text>
<polygon fill="lightgrey" stroke="transparent" points="928.5,-1085.3 928.5,-1107.3 1051.5,-1107.3 1051.5,-1085.3 928.5,-1085.3"/>
<text text-anchor="start" x="931.19" y="-1091.7" font-family="Courier New" font-size="14.00">EOF PLUS MULT </text>
<text text-anchor="start" x="747.5" y="-1067.7" font-family="Courier New" font-size="14.00">T -&gt; • T MULT F </text>
<polygon fill="lightgrey" stroke="transparent" points="928.5,-1061.3 928.5,-1083.3 1051.5,-1083.3 1051.5,-1061.3 928.5,-1061.3"/>
<text text-anchor="start" x="931.19" y="-1067.7" font-family="Courier New" font-size="14.00">EOF PLUS MULT </text>
<text text-anchor="start" x="747.5" y="-1043.7" font-family="Courier New" font-size="14.00">E -&gt; • E PLUS T </text>
<polygon fill="lightgrey" stroke="transparent" points="928.5,-1037.3 928.5,-1059.3 1051.5,-1059.3 1051.5,-1037.3 928.5,-1037.3"/>
<text text-anchor="start" x="931.5" y="-1043.7" font-family="Courier New" font-size="14.00">EOF PLUS </text>
</g>
<!-- state1 -->
<g id="node2" class="node">
<title>state1</title>
<path fill="white" stroke="black" d="M12,-12.5C12,-12.5 281,-12.5 281,-12.5 287,-12.5 293,-18.5 293,-24.5 293,-24.5 293,-58.5 293,-58.5 293,-64.5 287,-70.5 281,-70.5 281,-70.5 12,-70.5 12,-70.5 6,-70.5 0,-64.5 0,-58.5 0,-58.5 0,-24.5 0,-24.5 0,-18.5 6,-12.5 12,-12.5"/>
<polygon fill="white" stroke="transparent" points="8,-16.5 8,-66.5 285,-66.5 285,-16.5 8,-16.5"/>
<polygon fill="black" stroke="transparent" points="10.5,-42.5 10.5,-64.5 283.5,-64.5 283.5,-42.5 10.5,-42.5"/>
<text text-anchor="start" x="113.39" y="-48.89999999999998" font-family="Courier New" font-size="14.00" fill="white">State #1</text>
<text text-anchor="start" x="13.09" y="-24.899999999999977" font-family="Courier New" font-size="14.00">F -&gt; ID • </text>
<polygon fill="lightgrey" stroke="transparent" points="118.5,-18.5 118.5,-40.5 283.5,-40.5 283.5,-18.5 118.5,-18.5"/>
<text text-anchor="start" x="121.19" y="-24.899999999999977" font-family="Courier New" font-size="14.00">EOF PLUS MULT RPAR </text>
</g>
<!-- state0&#45;&gt;state1 -->
<g id="edge5" class="edge">
<title>state0-&gt;state1</title>
<path fill="none" stroke="black" d="M733.93,-1127.92C481.67,-1118.22 26.5,-1080.84 26.5,-937.5 26.5,-937.5 26.5,-937.5 26.5,-212.3 26.5,-157.93 68.03,-108.77 102.23,-77.5"/>
<polygon fill="black" stroke="black" points="104.71,-79.98 109.84,-70.71 100.05,-74.75 104.71,-79.98"/>
<text text-anchor="middle" x="35.639999999999986" y="-576.7" font-family="Helvetica,Arial,sans-serif" font-size="14.00">ID </text>
</g>
<!-- state2 -->
<g id="node3" class="node">
<title>state2</title>
<path fill="white" stroke="black" d="M408.5,-895.5C408.5,-895.5 728.5,-895.5 728.5,-895.5 734.5,-895.5 740.5,-901.5 740.5,-907.5 740.5,-907.5 740.5,-965.5 740.5,-965.5 740.5,-971.5 734.5,-977.5 728.5,-977.5 728.5,-977.5 408.5,-977.5 408.5,-977.5 402.5,-977.5 396.5,-971.5 396.5,-965.5 396.5,-965.5 396.5,-907.5 396.5,-907.5 396.5,-901.5 402.5,-895.5 408.5,-895.5"/>
<polygon fill="white" stroke="transparent" points="404.5,-899.5 404.5,-973.5 732.5,-973.5 732.5,-899.5 404.5,-899.5"/>
<polygon fill="black" stroke="transparent" points="406.5,-949.5 406.5,-971.5 730.5,-971.5 730.5,-949.5 406.5,-949.5"/>
<text text-anchor="start" x="534.89" y="-955.9" font-family="Courier New" font-size="14.00" fill="white">State #2</text>
<text text-anchor="start" x="409.5" y="-931.9" font-family="Courier New" font-size="14.00">E -&gt; T • </text>
<polygon fill="lightgrey" stroke="transparent" points="565.5,-925.5 565.5,-947.5 730.5,-947.5 730.5,-925.5 565.5,-925.5"/>
<text text-anchor="start" x="568.5" y="-931.9" font-family="Courier New" font-size="14.00">EOF PLUS RPAR </text>
<text text-anchor="start" x="409.39" y="-907.9" font-family="Courier New" font-size="14.00">T -&gt; T • MULT F </text>
<polygon fill="lightgrey" stroke="transparent" points="565.5,-901.5 565.5,-923.5 730.5,-923.5 730.5,-901.5 565.5,-901.5"/>
<text text-anchor="start" x="568.19" y="-907.9" font-family="Courier New" font-size="14.00">EOF PLUS MULT RPAR </text>
</g>
<!-- state0&#45;&gt;state2 -->
<g id="edge4" class="edge">
<title>state0-&gt;state2</title>
<path fill="none" stroke="black" d="M733.96,-1034.97C703.1,-1016.79 672.2,-998.58 645.59,-982.91"/>
<polygon fill="black" stroke="black" points="647.13,-979.75 636.74,-977.7 643.58,-985.79 647.13,-979.75"/>
<text text-anchor="middle" x="700.53" y="-1000.2" font-family="Helvetica,Arial,sans-serif" font-size="14.00">T </text>
</g>
<!-- state43 -->

<!-- state1&#45;&gt;state43 -->
<g id="edge3" class="edge">
<title>state0-&gt;state3</title>
<path fill="none" stroke="black" d="M1013.07,-1030.99C1025.84,-1014.62 1036.94,-996.82 1044.5,-978 1064.87,-927.33 1041.39,-777.22 1006.5,-735.2 974.01,-696.07 929.15,-666.18 883.4,-643.66"/>
<polygon fill="black" stroke="black" points="884.77,-640.43 874.24,-639.25 881.73,-646.74 884.77,-640.43"/>
<text text-anchor="middle" x="1069.14" y="-864.4" font-family="Helvetica,Arial,sans-serif" font-size="14.00">LPAR </text>
</g>
<!-- state3 -->
<g id="node4" class="node">
<title>state3</title>
<path fill="white" stroke="black" d="M517,-479.9C517,-479.9 862,-479.9 862,-479.9 868,-479.9 874,-485.9 874,-491.9 874,-491.9 874,-669.9 874,-669.9 874,-675.9 868,-681.9 862,-681.9 862,-681.9 517,-681.9 517,-681.9 511,-681.9 505,-675.9 505,-669.9 505,-669.9 505,-491.9 505,-491.9 505,-485.9 511,-479.9 517,-479.9"/>
<polygon fill="white" stroke="transparent" points="513,-483.9 513,-677.9 866,-677.9 866,-483.9 513,-483.9"/>
<polygon fill="black" stroke="transparent" points="515.5,-653.9 515.5,-675.9 864.5,-675.9 864.5,-653.9 515.5,-653.9"/>
<text text-anchor="start" x="656.39" y="-660.3" font-family="Courier New" font-size="14.00" fill="white">State #3</text>
<text text-anchor="start" x="518.29" y="-636.3" font-family="Courier New" font-size="14.00">F -&gt; LPAR • E RPAR </text>
<polygon fill="lightgrey" stroke="transparent" points="699.5,-629.9 699.5,-651.9 864.5,-651.9 864.5,-629.9 699.5,-629.9"/>
<text text-anchor="start" x="702.19" y="-636.3" font-family="Courier New" font-size="14.00">EOF PLUS MULT RPAR </text>
<text text-anchor="start" x="518.29" y="-612.3" font-family="Courier New" font-size="14.00">F -&gt; • LPAR E RPAR </text>
<polygon fill="lightgrey" stroke="transparent" points="699.5,-605.9 699.5,-627.9 864.5,-627.9 864.5,-605.9 699.5,-605.9"/>
<text text-anchor="start" x="702.5" y="-612.3" font-family="Courier New" font-size="14.00">PLUS MULT RPAR </text>
<text text-anchor="start" x="518.5" y="-588.3" font-family="Courier New" font-size="14.00">E -&gt; • T </text>
<polygon fill="lightgrey" stroke="transparent" points="699.5,-581.9 699.5,-603.9 864.5,-603.9 864.5,-581.9 699.5,-581.9"/>
<text text-anchor="start" x="702.5" y="-588.3" font-family="Courier New" font-size="14.00">PLUS RPAR </text>
<text text-anchor="start" x="518.5" y="-564.3" font-family="Courier New" font-size="14.00">T -&gt; • F </text>
<polygon fill="lightgrey" stroke="transparent" points="699.5,-557.9 699.5,-579.9 864.5,-579.9 864.5,-557.9 699.5,-557.9"/>
<text text-anchor="start" x="702.5" y="-564.3" font-family="Courier New" font-size="14.00">PLUS MULT RPAR </text>
<text text-anchor="start" x="518.5" y="-540.3" font-family="Courier New" font-size="14.00">F -&gt; • ID </text>
<polygon fill="lightgrey" stroke="transparent" points="699.5,-533.9 699.5,-555.9 864.5,-555.9 864.5,-533.9 699.5,-533.9"/>
<text text-anchor="start" x="702.5" y="-540.3" font-family="Courier New" font-size="14.00">PLUS MULT RPAR </text>
<text text-anchor="start" x="518.5" y="-516.3" font-family="Courier New" font-size="14.00">T -&gt; • T MULT F </text>
<polygon fill="lightgrey" stroke="transparent" points="699.5,-509.9 699.5,-531.9 864.5,-531.9 864.5,-509.9 699.5,-509.9"/>
<text text-anchor="start" x="702.5" y="-516.3" font-family="Courier New" font-size="14.00">PLUS MULT RPAR </text>
<text text-anchor="start" x="518.5" y="-492.3" font-family="Courier New" font-size="14.00">E -&gt; • E PLUS T </text>
<polygon fill="lightgrey" stroke="transparent" points="699.5,-485.9 699.5,-507.9 864.5,-507.9 864.5,-485.9 699.5,-485.9"/>
<text text-anchor="start" x="702.5" y="-492.3" font-family="Courier New" font-size="14.00">PLUS RPAR </text>
</g>
<!-- state2&#45;&gt;state3 -->
<g id="edge2" class="edge">
<title>state0-&gt;state4</title>
<path fill="none" stroke="black" d="M1061.01,-1045.97C1093.85,-1017.24 1118.5,-981.13 1118.5,-937.5 1118.5,-937.5 1118.5,-937.5 1118.5,-212.3 1118.5,-162.32 1114.92,-149.41 1102.5,-101 1100.76,-94.22 1098.5,-87.14 1096.09,-80.35"/>
<polygon fill="black" stroke="black" points="1099.26,-78.83 1092.5,-70.67 1092.7,-81.26 1099.26,-78.83"/>
<text text-anchor="middle" x="1124.14" y="-576.7" font-family="Helvetica,Arial,sans-serif" font-size="14.00">F </text>
</g>
<!-- state4 -->
<g id="node5" class="node">
<title>state4</title>
<path fill="white" stroke="black" d="M950,-12.5C950,-12.5 1211,-12.5 1211,-12.5 1217,-12.5 1223,-18.5 1223,-24.5 1223,-24.5 1223,-58.5 1223,-58.5 1223,-64.5 1217,-70.5 1211,-70.5 1211,-70.5 950,-70.5 950,-70.5 944,-70.5 938,-64.5 938,-58.5 938,-58.5 938,-24.5 938,-24.5 938,-18.5 944,-12.5 950,-12.5"/>
<polygon fill="white" stroke="transparent" points="946,-16.5 946,-66.5 1215,-66.5 1215,-16.5 946,-16.5"/>
<polygon fill="black" stroke="transparent" points="948.5,-42.5 948.5,-64.5 1213.5,-64.5 1213.5,-42.5 948.5,-42.5"/>
<text text-anchor="start" x="1047.39" y="-48.900000000000006" font-family="Courier New" font-size="14.00" fill="white">State #4</text>
<text text-anchor="start" x="951.29" y="-24.900000000000006" font-family="Courier New" font-size="14.00">T -&gt; F • </text>
<polygon fill="lightgrey" stroke="transparent" points="1048.5,-18.5 1048.5,-40.5 1213.5,-40.5 1213.5,-18.5 1048.5,-18.5"/>
<text text-anchor="start" x="1051.19" y="-24.900000000000006" font-family="Courier New" font-size="14.00">EOF PLUS MULT RPAR </text>
</g>
<!-- state2&#45;&gt;state4 -->
<g id="edge1" class="edge">
<title>state0-&gt;state5</title>
<path fill="none" stroke="black" d="M897.5,-1031.28C897.5,-1016.23 897.5,-1001.29 897.5,-987.9"/>
<polygon fill="black" stroke="black" points="901,-987.52 897.5,-977.52 894,-987.52 901,-987.52"/>
<text text-anchor="middle" x="903.53" y="-1000.2" font-family="Helvetica,Arial,sans-serif" font-size="14.00">E </text>
</g>
<!-- state5 -->
<g id="node6" class="node">
<title>state5</title>
<path fill="white" stroke="black" d="M771,-895.5C771,-895.5 1024,-895.5 1024,-895.5 1030,-895.5 1036,-901.5 1036,-907.5 1036,-907.5 1036,-965.5 1036,-965.5 1036,-971.5 1030,-977.5 1024,-977.5 1024,-977.5 771,-977.5 771,-977.5 765,-977.5 759,-971.5 759,-965.5 759,-965.5 759,-907.5 759,-907.5 759,-901.5 765,-895.5 771,-895.5"/>
<polygon fill="white" stroke="transparent" points="767,-899.5 767,-973.5 1028,-973.5 1028,-899.5 767,-899.5"/>
<polygon fill="black" stroke="transparent" points="769.5,-949.5 769.5,-971.5 1026.5,-971.5 1026.5,-949.5 769.5,-949.5"/>
<text text-anchor="start" x="864.39" y="-955.9" font-family="Courier New" font-size="14.00" fill="white">State #5</text>
<text text-anchor="start" x="772.49" y="-931.9" font-family="Courier New" font-size="14.00">$START -&gt; E • EOF </text>
<polygon fill="lightgrey" stroke="transparent" points="945.5,-925.5 945.5,-947.5 1026.5,-947.5 1026.5,-925.5 945.5,-925.5"/>
<text text-anchor="start" x="948.5" y="-931.9" font-family="Courier New" font-size="14.00">EOF </text>
<text text-anchor="start" x="772.5" y="-907.9" font-family="Courier New" font-size="14.00">E -&gt; E • PLUS T </text>
<polygon fill="lightgrey" stroke="transparent" points="945.5,-901.5 945.5,-923.5 1026.5,-923.5 1026.5,-901.5 945.5,-901.5"/>
<text text-anchor="start" x="948.19" y="-907.9" font-family="Courier New" font-size="14.00">EOF PLUS </text>
</g><g id="node10" class="node">
<title>state9</title>
<path fill="white" stroke="black" d="M296,-735.7C296,-735.7 641,-735.7 641,-735.7 647,-735.7 653,-741.7 653,-747.7 653,-747.7 653,-829.7 653,-829.7 653,-835.7 647,-841.7 641,-841.7 641,-841.7 296,-841.7 296,-841.7 290,-841.7 284,-835.7 284,-829.7 284,-829.7 284,-747.7 284,-747.7 284,-741.7 290,-735.7 296,-735.7"/>
<polygon fill="white" stroke="transparent" points="292,-739.7 292,-837.7 645,-837.7 645,-739.7 292,-739.7"/>
<polygon fill="black" stroke="transparent" points="294.5,-813.7 294.5,-835.7 643.5,-835.7 643.5,-813.7 294.5,-813.7"/>
<text text-anchor="start" x="435.39" y="-820.1" font-family="Courier New" font-size="14.00" fill="white">State #9</text>
<text text-anchor="start" x="297.29" y="-796.1" font-family="Courier New" font-size="14.00">F -&gt; • LPAR E RPAR </text>
<polygon fill="lightgrey" stroke="transparent" points="478.5,-789.7 478.5,-811.7 643.5,-811.7 643.5,-789.7 478.5,-789.7"/>
<text text-anchor="start" x="481.19" y="-796.1" font-family="Courier New" font-size="14.00">EOF PLUS MULT RPAR </text>
<text text-anchor="start" x="297.5" y="-772.1" font-family="Courier New" font-size="14.00">T -&gt; T MULT • F </text>
<polygon fill="lightgrey" stroke="transparent" points="478.5,-765.7 478.5,-787.7 643.5,-787.7 643.5,-765.7 478.5,-765.7"/>
<text text-anchor="start" x="481.19" y="-772.1" font-family="Courier New" font-size="14.00">EOF PLUS MULT RPAR </text>
<text text-anchor="start" x="297.5" y="-748.1" font-family="Courier New" font-size="14.00">F -&gt; • ID </text>
<polygon fill="lightgrey" stroke="transparent" points="478.5,-741.7 478.5,-763.7 643.5,-763.7 643.5,-741.7 478.5,-741.7"/>
<text text-anchor="start" x="481.19" y="-748.1" font-family="Courier New" font-size="14.00">EOF PLUS MULT RPAR </text>
</g>
<!-- state2&#45;&gt;state5 -->
<g id="edge6" class="edge">
<title>state2-&gt;state9</title>
<path fill="none" stroke="black" d="M540.91,-895.27C531.35,-881.33 520.41,-865.39 509.98,-850.18"/>
<polygon fill="black" stroke="black" points="512.79,-848.09 504.25,-841.83 507.02,-852.05 512.79,-848.09"/>
<text text-anchor="middle" x="549.08" y="-864.4" font-family="Helvetica,Arial,sans-serif" font-size="14.00">MULT </text>
</g>
<!-- state4&#45;&gt;state4 -->
<g id="edge11" class="edge">
<title>state3-&gt;state1</title>
<path fill="none" stroke="black" d="M511.37,-479.76C434.99,-430.32 349.13,-365.27 286.5,-290.8 230.24,-223.91 184.97,-131.13 162.31,-80.02"/>
<polygon fill="black" stroke="black" points="165.43,-78.43 158.21,-70.68 159.02,-81.24 165.43,-78.43"/>
<text text-anchor="middle" x="327.64" y="-313" font-family="Helvetica,Arial,sans-serif" font-size="14.00">ID </text>
</g>
<!-- state4&#45;&gt;state5 -->
<g id="edge10" class="edge">
<title>state3-&gt;state2</title>
<path fill="none" stroke="black" d="M694.11,-681.94C692.69,-732.21 685.1,-792.78 661.5,-842.2 653.43,-859.09 641.02,-874.72 627.86,-888.16"/>
<polygon fill="black" stroke="black" points="625.18,-885.9 620.5,-895.4 630.08,-890.89 625.18,-885.9"/>
<text text-anchor="middle" x="696.53" y="-784.5" font-family="Helvetica,Arial,sans-serif" font-size="14.00">T </text>
</g>
<!-- state42 -->
<g id="edge9" class="edge">
<title>state3-&gt;state3</title>
<path fill="none" stroke="black" d="M874.16,-597.26C885.31,-593.37 892,-587.91 892,-580.9 892,-576.19 888.98,-572.18 883.61,-568.88"/>
<polygon fill="black" stroke="black" points="884.71,-565.53 874.16,-564.54 881.79,-571.89 884.71,-565.53"/>
<text text-anchor="middle" x="911.64" y="-576.7" font-family="Helvetica,Arial,sans-serif" font-size="14.00">LPAR </text>
</g>
<!-- state4&#45;&gt;state42 -->
<g id="edge8" class="edge">
<title>state3-&gt;state4</title>
<path fill="none" stroke="black" d="M874.14,-483.75C945.79,-436.08 1020.19,-371.3 1060.5,-290.8 1094.4,-223.11 1091.29,-131.89 1085.93,-80.98"/>
<polygon fill="black" stroke="black" points="1089.38,-80.29 1084.77,-70.75 1082.42,-81.08 1089.38,-80.29"/>
<text text-anchor="middle" x="1055.14" y="-313" font-family="Helvetica,Arial,sans-serif" font-size="14.00">F </text>
</g>
<!-- state6 -->
<!-- state6 -->
<g id="node7" class="node">
<title>state6</title>
<path fill="white" stroke="black" d="M695,-136.3C695,-136.3 1040,-136.3 1040,-136.3 1046,-136.3 1052,-142.3 1052,-148.3 1052,-148.3 1052,-278.3 1052,-278.3 1052,-284.3 1046,-290.3 1040,-290.3 1040,-290.3 695,-290.3 695,-290.3 689,-290.3 683,-284.3 683,-278.3 683,-278.3 683,-148.3 683,-148.3 683,-142.3 689,-136.3 695,-136.3"/>
<polygon fill="white" stroke="transparent" points="691,-140.3 691,-286.3 1044,-286.3 1044,-140.3 691,-140.3"/>
<polygon fill="black" stroke="transparent" points="693.5,-262.3 693.5,-284.3 1042.5,-284.3 1042.5,-262.3 693.5,-262.3"/>
<text text-anchor="start" x="834.39" y="-268.7" font-family="Courier New" font-size="14.00" fill="white">State #6</text>
<text text-anchor="start" x="696.29" y="-244.7" font-family="Courier New" font-size="14.00">F -&gt; • LPAR E RPAR </text>
<polygon fill="lightgrey" stroke="transparent" points="877.5,-238.3 877.5,-260.3 1042.5,-260.3 1042.5,-238.3 877.5,-238.3"/>
<text text-anchor="start" x="880.19" y="-244.7" font-family="Courier New" font-size="14.00">EOF PLUS MULT RPAR </text>
<text text-anchor="start" x="696.5" y="-220.7" font-family="Courier New" font-size="14.00">T -&gt; • F </text>
<polygon fill="lightgrey" stroke="transparent" points="877.5,-214.3 877.5,-236.3 1042.5,-236.3 1042.5,-214.3 877.5,-214.3"/>
<text text-anchor="start" x="880.19" y="-220.7" font-family="Courier New" font-size="14.00">EOF PLUS MULT RPAR </text>
<text text-anchor="start" x="696.5" y="-196.7" font-family="Courier New" font-size="14.00">F -&gt; • ID </text>
<polygon fill="lightgrey" stroke="transparent" points="877.5,-190.3 877.5,-212.3 1042.5,-212.3 1042.5,-190.3 877.5,-190.3"/>
<text text-anchor="start" x="880.19" y="-196.7" font-family="Courier New" font-size="14.00">EOF PLUS MULT RPAR </text>
<text text-anchor="start" x="696.5" y="-172.7" font-family="Courier New" font-size="14.00">E -&gt; E PLUS • T </text>
<polygon fill="lightgrey" stroke="transparent" points="877.5,-166.3 877.5,-188.3 1042.5,-188.3 1042.5,-166.3 877.5,-166.3"/>
<text text-anchor="start" x="880.5" y="-172.7" font-family="Courier New" font-size="14.00">EOF PLUS RPAR </text>
<text text-anchor="start" x="696.5" y="-148.7" font-family="Courier New" font-size="14.00">T -&gt; • T MULT F </text>
<polygon fill="lightgrey" stroke="transparent" points="877.5,-142.3 877.5,-164.3 1042.5,-164.3 1042.5,-142.3 877.5,-142.3"/>
<text text-anchor="start" x="880.19" y="-148.7" font-family="Courier New" font-size="14.00">EOF PLUS MULT RPAR </text>
</g><g id="node12" class="node">
<title>state11</title>
<path fill="white" stroke="black" d="M474,-344.1C474,-344.1 819,-344.1 819,-344.1 825,-344.1 831,-350.1 831,-356.1 831,-356.1 831,-414.1 831,-414.1 831,-420.1 825,-426.1 819,-426.1 819,-426.1 474,-426.1 474,-426.1 468,-426.1 462,-420.1 462,-414.1 462,-414.1 462,-356.1 462,-356.1 462,-350.1 468,-344.1 474,-344.1"/>
<polygon fill="white" stroke="transparent" points="470,-348.1 470,-422.1 823,-422.1 823,-348.1 470,-348.1"/>
<polygon fill="black" stroke="transparent" points="472.5,-398.1 472.5,-420.1 821.5,-420.1 821.5,-398.1 472.5,-398.1"/>
<text text-anchor="start" x="609.19" y="-404.5" font-family="Courier New" font-size="14.00" fill="white">State #11</text>
<text text-anchor="start" x="475.5" y="-380.5" font-family="Courier New" font-size="14.00">E -&gt; E • PLUS T </text>
<polygon fill="lightgrey" stroke="transparent" points="656.5,-374.1 656.5,-396.1 821.5,-396.1 821.5,-374.1 656.5,-374.1"/>
<text text-anchor="start" x="659.5" y="-380.5" font-family="Courier New" font-size="14.00">PLUS RPAR </text>
<text text-anchor="start" x="475.29" y="-356.5" font-family="Courier New" font-size="14.00">F -&gt; LPAR E • RPAR </text>
<polygon fill="lightgrey" stroke="transparent" points="656.5,-350.1 656.5,-372.1 821.5,-372.1 821.5,-350.1 656.5,-350.1"/>
<text text-anchor="start" x="659.19" y="-356.5" font-family="Courier New" font-size="14.00">EOF PLUS MULT RPAR </text>
</g>
<!-- state5&#45;&gt;state6 -->
<g id="edge7" class="edge">
<title>state3-&gt;state11</title>
<path fill="none" stroke="black" d="M667.31,-479.88C663.94,-464.68 660.59,-449.59 657.59,-436.1"/>
<polygon fill="black" stroke="black" points="660.96,-435.12 655.38,-426.12 654.13,-436.64 660.96,-435.12"/>
<text text-anchor="middle" x="669.53" y="-448.8" font-family="Helvetica,Arial,sans-serif" font-size="14.00">E </text>
</g>

<!-- state5&#45;&gt;state6 -->
<g id="edge13" class="edge">
<title>state5-&gt;state6</title>
<path fill="none" stroke="black" d="M961.62,-895.35C994,-869.7 1026.5,-833.13 1026.5,-789.7 1026.5,-789.7 1026.5,-789.7 1026.5,-384.1 1026.5,-350.06 1031.4,-337.11 1012.5,-308.8 1009.99,-305.04 1007.28,-301.4 1004.39,-297.88"/>
<polygon fill="black" stroke="black" points="1007.03,-295.57 997.81,-290.34 1001.75,-300.17 1007.03,-295.57"/>
<text text-anchor="middle" x="1045.37" y="-576.7" font-family="Helvetica,Arial,sans-serif" font-size="14.00">PLUS </text>
</g>
<!-- state7 -->
<g id="node8" class="node">
<title>state7</title>
<path fill="white" stroke="black" d="M775,-759.7C775,-759.7 986,-759.7 986,-759.7 992,-759.7 998,-765.7 998,-771.7 998,-771.7 998,-805.7 998,-805.7 998,-811.7 992,-817.7 986,-817.7 986,-817.7 775,-817.7 775,-817.7 769,-817.7 763,-811.7 763,-805.7 763,-805.7 763,-771.7 763,-771.7 763,-765.7 769,-759.7 775,-759.7"/>
<polygon fill="white" stroke="transparent" points="771,-763.7 771,-813.7 990,-813.7 990,-763.7 771,-763.7"/>
<polygon fill="black" stroke="transparent" points="773.5,-789.7 773.5,-811.7 988.5,-811.7 988.5,-789.7 773.5,-789.7"/>
<text text-anchor="start" x="847.39" y="-796.1" font-family="Courier New" font-size="14.00" fill="white">State #7</text>
<text text-anchor="start" x="776.49" y="-772.1" font-family="Courier New" font-size="14.00">$START -&gt; E EOF • </text>
<polygon fill="lightgrey" stroke="transparent" points="949.5,-765.7 949.5,-787.7 988.5,-787.7 988.5,-765.7 949.5,-765.7"/>
<text text-anchor="start" x="952.2" y="-772.1" font-family="Courier New" font-size="14.00">EOF </text>
</g>
<!-- state5&#45;&gt;state7 -->
<g id="edge12" class="edge">
<title>state5-&gt;state7</title>
<path fill="none" stroke="black" d="M892.81,-895.27C890.35,-874.22 887.37,-848.58 884.95,-827.84"/>
<polygon fill="black" stroke="black" points="888.41,-827.32 883.78,-817.79 881.46,-828.13 888.41,-827.32"/>
<text text-anchor="middle" x="906.47" y="-864.4" font-family="Helvetica,Arial,sans-serif" font-size="14.00">EOF </text>
</g>
<!-- state6&#45;&gt;state1 -->
<g id="edge17" class="edge">
<title>state6-&gt;state1</title>
<path fill="none" stroke="black" d="M682.96,-138.55C679.79,-137.6 676.64,-136.69 673.5,-135.8 605.58,-116.61 432.69,-87.34 303.32,-66.71"/>
<polygon fill="black" stroke="black" points="303.73,-63.23 293.31,-65.11 302.63,-70.14 303.73,-63.23"/>
<text text-anchor="middle" x="596.64" y="-105.2" font-family="Helvetica,Arial,sans-serif" font-size="14.00">ID </text>
</g>
<!-- state6&#45;&gt;state3 -->
<g id="edge15" class="edge">
<title>state6-&gt;state3</title>
<path fill="none" stroke="black" d="M869.03,-290.35C867.1,-332.39 859.99,-384.48 839.5,-426.6 831.8,-442.42 821.84,-457.62 810.7,-471.9"/>
<polygon fill="black" stroke="black" points="807.94,-469.74 804.4,-479.73 813.4,-474.13 807.94,-469.74"/>
<text text-anchor="middle" x="883.14" y="-380.9" font-family="Helvetica,Arial,sans-serif" font-size="14.00">LPAR </text>
</g>
<!-- state6&#45;&gt;state4 -->
<g id="edge14" class="edge">
<title>state6-&gt;state4</title>
<path fill="none" stroke="black" d="M963.1,-136.09C989.08,-115.38 1015.95,-93.96 1037.41,-76.85"/>
<polygon fill="black" stroke="black" points="1039.72,-79.49 1045.35,-70.52 1035.35,-74.01 1039.72,-79.49"/>
<text text-anchor="middle" x="1012.14" y="-105.2" font-family="Helvetica,Arial,sans-serif" font-size="14.00">F </text>
</g>
<!-- state8 -->
<g id="node9" class="node">
<title>state8</title>
<path fill="white" stroke="black" d="M455.5,-0.5C455.5,-0.5 775.5,-0.5 775.5,-0.5 781.5,-0.5 787.5,-6.5 787.5,-12.5 787.5,-12.5 787.5,-70.5 787.5,-70.5 787.5,-76.5 781.5,-82.5 775.5,-82.5 775.5,-82.5 455.5,-82.5 455.5,-82.5 449.5,-82.5 443.5,-76.5 443.5,-70.5 443.5,-70.5 443.5,-12.5 443.5,-12.5 443.5,-6.5 449.5,-0.5 455.5,-0.5"/>
<polygon fill="white" stroke="transparent" points="451.5,-4.5 451.5,-78.5 779.5,-78.5 779.5,-4.5 451.5,-4.5"/>
<polygon fill="black" stroke="transparent" points="453.5,-54.5 453.5,-76.5 777.5,-76.5 777.5,-54.5 453.5,-54.5"/>
<text text-anchor="start" x="581.89" y="-60.9" font-family="Courier New" font-size="14.00" fill="white">State #8</text>
<text text-anchor="start" x="456.39" y="-36.9" font-family="Courier New" font-size="14.00">E -&gt; E PLUS T • </text>
<polygon fill="lightgrey" stroke="transparent" points="612.5,-30.5 612.5,-52.5 777.5,-52.5 777.5,-30.5 612.5,-30.5"/>
<text text-anchor="start" x="615.5" y="-36.9" font-family="Courier New" font-size="14.00">EOF PLUS RPAR </text>
<text text-anchor="start" x="456.39" y="-12.9" font-family="Courier New" font-size="14.00">T -&gt; T • MULT F </text>
<polygon fill="lightgrey" stroke="transparent" points="612.5,-6.5 612.5,-28.5 777.5,-28.5 777.5,-6.5 612.5,-6.5"/>
<text text-anchor="start" x="615.19" y="-12.9" font-family="Courier New" font-size="14.00">EOF PLUS MULT RPAR </text>
</g>
<!-- state6&#45;&gt;state8 -->
<g id="edge16" class="edge">
<title>state6-&gt;state8</title>
<path fill="none" stroke="black" d="M754.4,-136.09C730.26,-119.83 705.48,-103.13 683.65,-88.42"/>
<polygon fill="black" stroke="black" points="685.38,-85.36 675.13,-82.68 681.47,-91.17 685.38,-85.36"/>
<text text-anchor="middle" x="732.53" y="-105.2" font-family="Helvetica,Arial,sans-serif" font-size="14.00">T </text>
</g>
<!-- state8&#45;&gt;state9 -->
<g id="edge18" class="edge">
<title>state8-&gt;state9</title>
<path fill="none" stroke="black" d="M443.41,-71.75C374.68,-87.25 306.95,-108.74 286.5,-135.8 208.55,-238.93 214.96,-323.79 293.34,-426.6 338.78,-486.21 408.11,-419.75 453.5,-479.4 507.13,-549.88 497.77,-657.85 484.39,-725.53"/>
<polygon fill="black" stroke="black" points="480.9,-725.12 482.31,-735.62 487.76,-726.54 480.9,-725.12"/>
<text text-anchor="middle" x="315.08" y="-380.9" font-family="Helvetica,Arial,sans-serif" font-size="14.00">MULT </text>
</g>
<!-- state9&#45;&gt;state1 -->
<g id="edge21" class="edge">
<title>state9-&gt;state1</title>
<path fill="none" stroke="black" d="M283.9,-755.16C202.4,-737.09 118.87,-712.22 91.5,-682.4 60.76,-648.91 72.5,-627.36 72.5,-581.9 72.5,-581.9 72.5,-581.9 72.5,-212.3 72.5,-163.15 98.88,-112.16 120.14,-79.05"/>
<polygon fill="black" stroke="black" points="123.11,-80.89 125.69,-70.62 117.27,-77.05 123.11,-80.89"/>
<text text-anchor="middle" x="81.64" y="-380.9" font-family="Helvetica,Arial,sans-serif" font-size="14.00">ID </text>
</g>
<!-- state9&#45;&gt;state3 -->
<g id="edge20" class="edge">
<title>state9-&gt;state3</title>
<path fill="none" stroke="black" d="M524.55,-735.5C539.88,-721.23 557.08,-705.22 574.42,-689.07"/>
<polygon fill="black" stroke="black" points="576.92,-691.52 581.86,-682.14 572.15,-686.39 576.92,-691.52"/>
<text text-anchor="middle" x="579.14" y="-704.6" font-family="Helvetica,Arial,sans-serif" font-size="14.00">LPAR </text>
</g>
<!-- state10 -->
<g id="node11" class="node">
<title>state10</title>
<path fill="white" stroke="black" d="M112.5,-551.9C112.5,-551.9 432.5,-551.9 432.5,-551.9 438.5,-551.9 444.5,-557.9 444.5,-563.9 444.5,-563.9 444.5,-597.9 444.5,-597.9 444.5,-603.9 438.5,-609.9 432.5,-609.9 432.5,-609.9 112.5,-609.9 112.5,-609.9 106.5,-609.9 100.5,-603.9 100.5,-597.9 100.5,-597.9 100.5,-563.9 100.5,-563.9 100.5,-557.9 106.5,-551.9 112.5,-551.9"/>
<polygon fill="white" stroke="transparent" points="108.5,-555.9 108.5,-605.9 436.5,-605.9 436.5,-555.9 108.5,-555.9"/>
<polygon fill="black" stroke="transparent" points="110.5,-581.9 110.5,-603.9 434.5,-603.9 434.5,-581.9 110.5,-581.9"/>
<text text-anchor="start" x="234.69" y="-588.3" font-family="Courier New" font-size="14.00" fill="white">State #10</text>
<text text-anchor="start" x="113.39" y="-564.3" font-family="Courier New" font-size="14.00">T -&gt; T MULT F • </text>
<polygon fill="lightgrey" stroke="transparent" points="269.5,-557.9 269.5,-579.9 434.5,-579.9 434.5,-557.9 269.5,-557.9"/>
<text text-anchor="start" x="272.19" y="-564.3" font-family="Courier New" font-size="14.00">EOF PLUS MULT RPAR </text>
</g>
<!-- state9&#45;&gt;state10 -->
<g id="edge19" class="edge">
<title>state9-&gt;state10</title>
<path fill="none" stroke="black" d="M418.79,-735.5C383.61,-698.57 337.38,-650.02 306.39,-617.48"/>
<polygon fill="black" stroke="black" points="308.67,-614.8 299.24,-609.98 303.6,-619.63 308.67,-614.8"/>
<text text-anchor="middle" x="406.14" y="-704.6" font-family="Helvetica,Arial,sans-serif" font-size="14.00">F </text>
</g>
<!-- state11&#45;&gt;state6 -->
<g id="edge23" class="edge">
<title>state11-&gt;state6</title>
<path fill="none" stroke="black" d="M698.59,-344.07C717.23,-329.75 738.98,-313.04 760.55,-296.47"/>
<polygon fill="black" stroke="black" points="762.69,-299.24 768.49,-290.37 758.42,-293.69 762.69,-299.24"/>
<text text-anchor="middle" x="763.37" y="-313" font-family="Helvetica,Arial,sans-serif" font-size="14.00">PLUS </text>
</g>
<!-- state12 -->
<g id="node13" class="node">
<title>state12</title>
<path fill="white" stroke="black" d="M308,-184.3C308,-184.3 653,-184.3 653,-184.3 659,-184.3 665,-190.3 665,-196.3 665,-196.3 665,-230.3 665,-230.3 665,-236.3 659,-242.3 653,-242.3 653,-242.3 308,-242.3 308,-242.3 302,-242.3 296,-236.3 296,-230.3 296,-230.3 296,-196.3 296,-196.3 296,-190.3 302,-184.3 308,-184.3"/>
<polygon fill="white" stroke="transparent" points="304,-188.3 304,-238.3 657,-238.3 657,-188.3 304,-188.3"/>
<polygon fill="black" stroke="transparent" points="306.5,-214.3 306.5,-236.3 655.5,-236.3 655.5,-214.3 306.5,-214.3"/>
<text text-anchor="start" x="443.19" y="-220.7" font-family="Courier New" font-size="14.00" fill="white">State #12</text>
<text text-anchor="start" x="309.29" y="-196.7" font-family="Courier New" font-size="14.00">F -&gt; LPAR E RPAR • </text>
<polygon fill="lightgrey" stroke="transparent" points="490.5,-190.3 490.5,-212.3 655.5,-212.3 655.5,-190.3 490.5,-190.3"/>
<text text-anchor="start" x="493.19" y="-196.7" font-family="Courier New" font-size="14.00">EOF PLUS MULT RPAR </text>
</g>
<!-- state11&#45;&gt;state12 -->
<g id="edge22" class="edge">
<title>state11-&gt;state12</title>
<path fill="none" stroke="black" d="M607.16,-343.86C579.2,-315.26 542.01,-277.22 515.17,-249.76"/>
<polygon fill="black" stroke="black" points="517.38,-247.02 507.89,-242.31 512.37,-251.91 517.38,-247.02"/>
<text text-anchor="middle" x="608.54" y="-313" font-family="Helvetica,Arial,sans-serif" font-size="14.00">RPAR </text>
</g>
</g>
</svg>