<?xml version="1.0" encoding="us-ascii" standalone="no"?><svg xmlns="http://www.w3.org/2000/svg" xmlns:xlink="http://www.w3.org/1999/xlink" contentStyleType="text/css" height="572px" preserveAspectRatio="none" style="width:769px;height:572px;background:#FFFFFF;" version="1.1" viewBox="0 0 769 572" width="769px" zoomAndPan="magnify"><defs/><g><g id="elem_0"><rect fill="#F1F1F1" height="101.4844" style="stroke:#181818;stroke-width:0.5;" width="190" x="309" y="7"/><text fill="#000000" font-family="sans-serif" font-size="14" lengthAdjust="spacing" textLength="9" x="399.5" y="21.9951">0</text><line style="stroke:#181818;stroke-width:1.0;" x1="309" x2="499" y1="27.2969" y2="27.2969"/><text fill="#000000" font-family="sans-serif" font-size="14" lengthAdjust="spacing" textLength="78" x="346" y="42.292">C -&gt; (*) c C</text><text fill="#000000" font-family="sans-serif" font-size="14" lengthAdjust="spacing" textLength="21" x="466" y="42.292">c d</text><line style="stroke:#181818;stroke-width:1.0;" x1="461" x2="461" y1="27.2969" y2="47.5938"/><line style="stroke:#181818;stroke-width:1.0;" x1="309" x2="499" y1="47.5938" y2="47.5938"/><text fill="#000000" font-family="sans-serif" font-size="14" lengthAdjust="spacing" textLength="142" x="314" y="62.5889">$START -&gt; (*) S EOF</text><text fill="#000000" font-family="sans-serif" font-size="14" lengthAdjust="spacing" textLength="28" x="466" y="62.5889">EOF</text><line style="stroke:#181818;stroke-width:1.0;" x1="461" x2="461" y1="47.5938" y2="67.8906"/><line style="stroke:#181818;stroke-width:1.0;" x1="309" x2="499" y1="67.8906" y2="67.8906"/><text fill="#000000" font-family="sans-serif" font-size="14" lengthAdjust="spacing" textLength="65" x="352.5" y="82.8857">C -&gt; (*) d</text><text fill="#000000" font-family="sans-serif" font-size="14" lengthAdjust="spacing" textLength="21" x="466" y="82.8857">c d</text><line style="stroke:#181818;stroke-width:1.0;" x1="461" x2="461" y1="67.8906" y2="88.1875"/><line style="stroke:#181818;stroke-width:1.0;" x1="309" x2="499" y1="88.1875" y2="88.1875"/><text fill="#000000" font-family="sans-serif" font-size="14" lengthAdjust="spacing" textLength="79" x="345.5" y="103.1826">S -&gt; (*) C C</text><text fill="#000000" font-family="sans-serif" font-size="14" lengthAdjust="spacing" textLength="28" x="466" y="103.1826">EOF</text><line style="stroke:#181818;stroke-width:1.0;" x1="461" x2="461" y1="88.1875" y2="108.4844"/></g><g id="elem_1"><rect fill="#F1F1F1" height="40.5938" style="stroke:#181818;stroke-width:0.5;" width="190" x="34" y="213.5"/><text fill="#000000" font-family="sans-serif" font-size="14" lengthAdjust="spacing" textLength="9" x="124.5" y="228.4951">1</text><line style="stroke:#181818;stroke-width:1.0;" x1="34" x2="224" y1="233.7969" y2="233.7969"/><text fill="#000000" font-family="sans-serif" font-size="14" lengthAdjust="spacing" textLength="142" x="39" y="248.792">$START -&gt; S (*) EOF</text><text fill="#000000" font-family="sans-serif" font-size="14" lengthAdjust="spacing" textLength="28" x="191" y="248.792">EOF</text><line style="stroke:#181818;stroke-width:1.0;" x1="186" x2="186" y1="233.7969" y2="254.0938"/></g><g id="elem_2"><rect fill="#F1F1F1" height="81.1875" style="stroke:#181818;stroke-width:0.5;" width="127" x="432.5" y="193"/><text fill="#000000" font-family="sans-serif" font-size="14" lengthAdjust="spacing" textLength="8" x="492" y="207.9951">2</text><line style="stroke:#181818;stroke-width:1.0;" x1="432.5" x2="559.5" y1="213.2969" y2="213.2969"/><text fill="#000000" font-family="sans-serif" font-size="14" lengthAdjust="spacing" textLength="78" x="438" y="228.292">C -&gt; (*) c C</text><text fill="#000000" font-family="sans-serif" font-size="14" lengthAdjust="spacing" textLength="28" x="526.5" y="228.292">EOF</text><line style="stroke:#181818;stroke-width:1.0;" x1="521.5" x2="521.5" y1="213.2969" y2="233.5938"/><line style="stroke:#181818;stroke-width:1.0;" x1="432.5" x2="559.5" y1="233.5938" y2="233.5938"/><text fill="#000000" font-family="sans-serif" font-size="14" lengthAdjust="spacing" textLength="65" x="444.5" y="248.5889">C -&gt; (*) d</text><text fill="#000000" font-family="sans-serif" font-size="14" lengthAdjust="spacing" textLength="28" x="526.5" y="248.5889">EOF</text><line style="stroke:#181818;stroke-width:1.0;" x1="521.5" x2="521.5" y1="233.5938" y2="253.8906"/><line style="stroke:#181818;stroke-width:1.0;" x1="432.5" x2="559.5" y1="253.8906" y2="253.8906"/><text fill="#000000" font-family="sans-serif" font-size="14" lengthAdjust="spacing" textLength="79" x="437.5" y="268.8857">S -&gt; C (*) C</text><text fill="#000000" font-family="sans-serif" font-size="14" lengthAdjust="spacing" textLength="28" x="526.5" y="268.8857">EOF</text><line style="stroke:#181818;stroke-width:1.0;" x1="521.5" x2="521.5" y1="253.8906" y2="274.1875"/></g><g id="elem_3"><rect fill="#F1F1F1" height="40.5938" style="stroke:#181818;stroke-width:0.5;" width="138" x="624" y="525"/><text fill="#000000" font-family="sans-serif" font-size="14" lengthAdjust="spacing" textLength="9" x="688.5" y="539.9951">3</text><line style="stroke:#181818;stroke-width:1.0;" x1="624" x2="762" y1="545.2969" y2="545.2969"/><text fill="#000000" font-family="sans-serif" font-size="14" lengthAdjust="spacing" textLength="65" x="629" y="560.292">C -&gt; d (*)</text><text fill="#000000" font-family="sans-serif" font-size="14" lengthAdjust="spacing" textLength="53" x="704" y="560.292">EOF c d</text><line style="stroke:#181818;stroke-width:1.0;" x1="699" x2="699" y1="545.2969" y2="565.5938"/></g><g id="elem_4"><rect fill="#F1F1F1" height="81.1875" style="stroke:#181818;stroke-width:0.5;" width="151" x="248.5" y="359"/><text fill="#000000" font-family="sans-serif" font-size="14" lengthAdjust="spacing" textLength="8" x="320" y="373.9951">4</text><line style="stroke:#181818;stroke-width:1.0;" x1="248.5" x2="399.5" y1="379.2969" y2="379.2969"/><text fill="#000000" font-family="sans-serif" font-size="14" lengthAdjust="spacing" textLength="78" x="253.5" y="394.292">C -&gt; c (*) C</text><text fill="#000000" font-family="sans-serif" font-size="14" lengthAdjust="spacing" textLength="53" x="341.5" y="394.292">EOF c d</text><line style="stroke:#181818;stroke-width:1.0;" x1="336.5" x2="336.5" y1="379.2969" y2="399.5938"/><line style="stroke:#181818;stroke-width:1.0;" x1="248.5" x2="399.5" y1="399.5938" y2="399.5938"/><text fill="#000000" font-family="sans-serif" font-size="14" lengthAdjust="spacing" textLength="78" x="253.5" y="414.5889">C -&gt; (*) c C</text><text fill="#000000" font-family="sans-serif" font-size="14" lengthAdjust="spacing" textLength="53" x="341.5" y="414.5889">EOF c d</text><line style="stroke:#181818;stroke-width:1.0;" x1="336.5" x2="336.5" y1="399.5938" y2="419.8906"/><line style="stroke:#181818;stroke-width:1.0;" x1="248.5" x2="399.5" y1="419.8906" y2="419.8906"/><text fill="#000000" font-family="sans-serif" font-size="14" lengthAdjust="spacing" textLength="65" x="260" y="434.8857">C -&gt; (*) d</text><text fill="#000000" font-family="sans-serif" font-size="14" lengthAdjust="spacing" textLength="53" x="341.5" y="434.8857">EOF c d</text><line style="stroke:#181818;stroke-width:1.0;" x1="336.5" x2="336.5" y1="419.8906" y2="440.1875"/></g><g id="elem_5"><rect fill="#F1F1F1" height="40.5938" style="stroke:#181818;stroke-width:0.5;" width="151" x="248.5" y="525"/><text fill="#000000" font-family="sans-serif" font-size="14" lengthAdjust="spacing" textLength="9" x="319.5" y="539.9951">5</text><line style="stroke:#181818;stroke-width:1.0;" x1="248.5" x2="399.5" y1="545.2969" y2="545.2969"/><text fill="#000000" font-family="sans-serif" font-size="14" lengthAdjust="spacing" textLength="78" x="253.5" y="560.292">C -&gt; c C (*)</text><text fill="#000000" font-family="sans-serif" font-size="14" lengthAdjust="spacing" textLength="53" x="341.5" y="560.292">EOF c d</text><line style="stroke:#181818;stroke-width:1.0;" x1="336.5" x2="336.5" y1="545.2969" y2="565.5938"/></g><g id="elem_6"><rect fill="#F1F1F1" height="40.5938" style="stroke:#181818;stroke-width:0.5;" width="127" x="487.5" y="379.5"/><text fill="#000000" font-family="sans-serif" font-size="14" lengthAdjust="spacing" textLength="9" x="546.5" y="394.4951">6</text><line style="stroke:#181818;stroke-width:1.0;" x1="487.5" x2="614.5" y1="399.7969" y2="399.7969"/><text fill="#000000" font-family="sans-serif" font-size="14" lengthAdjust="spacing" textLength="79" x="492.5" y="414.792">S -&gt; C C (*)</text><text fill="#000000" font-family="sans-serif" font-size="14" lengthAdjust="spacing" textLength="28" x="581.5" y="414.792">EOF</text><line style="stroke:#181818;stroke-width:1.0;" x1="576.5" x2="576.5" y1="399.7969" y2="420.0938"/></g><g id="elem_7"><rect fill="#F1F1F1" height="40.5938" style="stroke:#181818;stroke-width:0.5;" width="190" x="7" y="379.5"/><text fill="#000000" font-family="sans-serif" font-size="14" lengthAdjust="spacing" textLength="9" x="97.5" y="394.4951">7</text><line style="stroke:#181818;stroke-width:1.0;" x1="7" x2="197" y1="399.7969" y2="399.7969"/><text fill="#000000" font-family="sans-serif" font-size="14" lengthAdjust="spacing" textLength="142" x="12" y="414.792">$START -&gt; S EOF (*)</text><text fill="#000000" font-family="sans-serif" font-size="14" lengthAdjust="spacing" textLength="28" x="164" y="414.792">EOF</text><line style="stroke:#181818;stroke-width:1.0;" x1="159" x2="159" y1="399.7969" y2="420.0938"/></g><!--link 0 to 4--><g id="link_0_4"><path codeLine="32" d="M391.324,112.374 C375.529,179.502 350.2203,287.0645 335.6403,349.0275 " fill="none" id="0-to-4" style="stroke:#181818;stroke-width:1.0;"/><polygon fill="#181818" points="334.266,354.868,340.2211,347.0234,335.4112,350.0009,332.4338,345.1911,334.266,354.868" style="stroke:#181818;stroke-width:1.0;"/><text fill="#000000" font-family="sans-serif" font-size="13" lengthAdjust="spacing" textLength="7" x="375" y="238.0669">c</text></g><!--link 0 to 3--><g id="link_0_3"><path codeLine="33" d="M491.57,112.052 C523.055,133.681 557.542,160.316 585,189 C646.033,252.757 662.787,272.442 694,355 C715.542,411.979 720.927,430.9 711,491 C709.337,501.067 708.0707,506.1571 704.7247,515.3067 " fill="none" id="0-to-3" style="stroke:#181818;stroke-width:1.0;"/><polygon fill="#181818" points="702.664,520.9417,709.5118,513.863,704.3813,516.2459,701.9984,511.1154,702.664,520.9417" style="stroke:#181818;stroke-width:1.0;"/><text fill="#000000" font-family="sans-serif" font-size="13" lengthAdjust="spacing" textLength="8" x="682" y="321.0669">d</text></g><!--link 0 to 2--><g id="link_0_2"><path codeLine="34" d="M432.354,112.126 C445.394,136.79 457.8604,160.3668 470.1754,183.6578 " fill="none" id="0-to-2" style="stroke:#181818;stroke-width:1.0;"/><polygon fill="#181818" points="472.98,188.962,472.3093,179.136,470.6429,184.5418,465.237,182.8754,472.98,188.962" style="stroke:#181818;stroke-width:1.0;"/><text fill="#000000" font-family="sans-serif" font-size="13" lengthAdjust="spacing" textLength="9" x="457" y="155.0669">C</text></g><!--link 0 to 1--><g id="link_0_1"><path codeLine="35" d="M319.247,112.126 C267.641,144.778 209.4223,181.6149 170.4233,206.2909 " fill="none" id="0-to-1" style="stroke:#181818;stroke-width:1.0;"/><polygon fill="#181818" points="165.353,209.499,175.0972,208.067,169.5782,206.8255,170.8197,201.3066,165.353,209.499" style="stroke:#181818;stroke-width:1.0;"/><text fill="#000000" font-family="sans-serif" font-size="13" lengthAdjust="spacing" textLength="8" x="268" y="155.0669">S</text></g><!--link 1 to 7--><g id="link_1_7"><path codeLine="36" d="M125.189,257.649 C120.043,288.906 111.9027,338.3527 106.7667,369.5477 " fill="none" id="1-to-7" style="stroke:#181818;stroke-width:1.0;"/><polygon fill="#181818" points="105.792,375.468,111.201,367.2374,106.6043,370.5344,103.3072,365.9377,105.792,375.468" style="stroke:#181818;stroke-width:1.0;"/><text fill="#000000" font-family="sans-serif" font-size="13" lengthAdjust="spacing" textLength="25" x="118" y="321.0669">EOF</text></g><!--link 2 to 4--><g id="link_2_4"><path codeLine="37" d="M450.359,278.018 C425.478,301.742 399.1114,326.8826 374.1974,350.6376 " fill="none" id="2-to-4" style="stroke:#181818;stroke-width:1.0;"/><polygon fill="#181818" points="369.855,354.778,379.129,351.4623,373.4737,351.3276,373.6084,345.6724,369.855,354.778" style="stroke:#181818;stroke-width:1.0;"/><text fill="#000000" font-family="sans-serif" font-size="13" lengthAdjust="spacing" textLength="7" x="417" y="321.0669">c</text></g><!--link 2 to 3--><g id="link_2_3"><path codeLine="38" d="M564.467,278.267 C591.481,298.64 620.626,325.02 640,355 C674.31,408.094 686.0513,477.5172 690.2883,515.0113 " fill="none" id="2-to-3" style="stroke:#181818;stroke-width:1.0;"/><polygon fill="#181818" points="690.962,520.9734,693.9261,511.5812,690.4006,516.005,685.9767,512.4795,690.962,520.9734" style="stroke:#181818;stroke-width:1.0;"/><text fill="#000000" font-family="sans-serif" font-size="13" lengthAdjust="spacing" textLength="8" x="677" y="404.0669">d</text></g><!--link 2 to 6--><g id="link_2_6"><path codeLine="39" d="M510.595,278.018 C521.033,309.144 532.7724,344.1463 541.2324,369.3743 " fill="none" id="2-to-6" style="stroke:#181818;stroke-width:1.0;"/><polygon fill="#181818" points="543.14,375.063,544.071,365.2582,541.5503,370.3224,536.4861,367.8018,543.14,375.063" style="stroke:#181818;stroke-width:1.0;"/><text fill="#000000" font-family="sans-serif" font-size="13" lengthAdjust="spacing" textLength="9" x="527" y="321.0669">C</text></g><!--link 4 to 4--><g id="link_4_4"><path codeLine="40" d="M407.603,384.396 C427.648,385.577 442.5,390.611 442.5,399.5 C442.5,408.389 433.6376,413.0701 413.5926,414.2511 " fill="none" id="4-to-4" style="stroke:#181818;stroke-width:1.0;"/><polygon fill="#181818" points="407.603,414.604,416.8227,418.0677,412.5943,414.3099,416.3522,410.0816,407.603,414.604" style="stroke:#181818;stroke-width:1.0;"/><text fill="#000000" font-family="sans-serif" font-size="13" lengthAdjust="spacing" textLength="7" x="448.5" y="404.0669">c</text></g><!--link 4 to 5--><g id="link_4_5"><path codeLine="41" d="M324,444.334 C324,469.556 324,494.2297 324,514.8297 " fill="none" id="4-to-5" style="stroke:#181818;stroke-width:1.0;"/><polygon fill="#181818" points="324,520.8297,328,511.8297,324,515.8297,320,511.8297,324,520.8297" style="stroke:#181818;stroke-width:1.0;"/><text fill="#000000" font-family="sans-serif" font-size="13" lengthAdjust="spacing" textLength="9" x="325" y="487.0669">C</text></g><!--link 4 to 3--><g id="link_4_3"><path codeLine="42" d="M407.732,433.062 C476.626,459.855 566.97,494.9886 628.135,518.7746 " fill="none" id="4-to-3" style="stroke:#181818;stroke-width:1.0;"/><polygon fill="#181818" points="633.727,520.9492,626.7887,513.9592,629.067,519.137,623.8892,521.4153,633.727,520.9492" style="stroke:#181818;stroke-width:1.0;"/><text fill="#000000" font-family="sans-serif" font-size="13" lengthAdjust="spacing" textLength="8" x="554" y="487.0669">d</text></g><!--SRC=[TP312i8m44Jl-OezU52XqAHf2u852NeLJ7z0ccl1U_7VtMms9f5uoh3pTcR9-dn12vimq4omFnvW0GFd2Hy7OcVdosEEZeNh_UOz_wG5zyLj79cGGTnRh5WXiIAbMQBoj42foY6LCXfHcU6wCgQBCOviDkd40EW8BEK-8RK3IiDL8liKQVwq3eZmrGN2zlZpHTuggRP1GyC9GuFkK3lM2hLXBL5R4DBh4JNjgsnRPTkaXx2jCuPqdys9_m00]--></g></svg>