<?xml version="1.0" encoding="us-ascii" standalone="no"?><svg xmlns="http://www.w3.org/2000/svg" xmlns:xlink="http://www.w3.org/1999/xlink" contentStyleType="text/css" height="1230px" preserveAspectRatio="none" style="width:1275px;height:1230px;background:#FFFFFF;" version="1.1" viewBox="0 0 1275 1230" width="1275px" zoomAndPan="magnify"><defs/><g><g id="elem_0"><rect fill="#F1F1F1" height="162.375" style="stroke:#181818;stroke-width:0.5;" width="276" x="842" y="7"/><text fill="#000000" font-family="sans-serif" font-size="14" lengthAdjust="spacing" textLength="9" x="975.5" y="21.9951">0</text><line style="stroke:#181818;stroke-width:1.0;" x1="842" x2="1118" y1="27.2969" y2="27.2969"/><text fill="#000000" font-family="sans-serif" font-size="14" lengthAdjust="spacing" textLength="147" x="847" y="42.292">F -&gt; (*) LPAR E RPAR</text><text fill="#000000" font-family="sans-serif" font-size="14" lengthAdjust="spacing" textLength="109" x="1004" y="42.292">EOF PLUS MULT</text><line style="stroke:#181818;stroke-width:1.0;" x1="999" x2="999" y1="27.2969" y2="47.5938"/><line style="stroke:#181818;stroke-width:1.0;" x1="842" x2="1118" y1="47.5938" y2="47.5938"/><text fill="#000000" font-family="sans-serif" font-size="14" lengthAdjust="spacing" textLength="64" x="888.5" y="62.5889">E -&gt; (*) T</text><text fill="#000000" font-family="sans-serif" font-size="14" lengthAdjust="spacing" textLength="67" x="1004" y="62.5889">EOF PLUS</text><line style="stroke:#181818;stroke-width:1.0;" x1="999" x2="999" y1="47.5938" y2="67.8906"/><line style="stroke:#181818;stroke-width:1.0;" x1="842" x2="1118" y1="67.8906" y2="67.8906"/><text fill="#000000" font-family="sans-serif" font-size="14" lengthAdjust="spacing" textLength="63" x="889" y="82.8857">T -&gt; (*) F</text><text fill="#000000" font-family="sans-serif" font-size="14" lengthAdjust="spacing" textLength="109" x="1004" y="82.8857">EOF PLUS MULT</text><line style="stroke:#181818;stroke-width:1.0;" x1="999" x2="999" y1="67.8906" y2="88.1875"/><line style="stroke:#181818;stroke-width:1.0;" x1="842" x2="1118" y1="88.1875" y2="88.1875"/><text fill="#000000" font-family="sans-serif" font-size="14" lengthAdjust="spacing" textLength="142" x="849.5" y="103.1826">$START -&gt; (*) E EOF</text><text fill="#000000" font-family="sans-serif" font-size="14" lengthAdjust="spacing" textLength="28" x="1004" y="103.1826">EOF</text><line style="stroke:#181818;stroke-width:1.0;" x1="999" x2="999" y1="88.1875" y2="108.4844"/><line style="stroke:#181818;stroke-width:1.0;" x1="842" x2="1118" y1="108.4844" y2="108.4844"/><text fill="#000000" font-family="sans-serif" font-size="14" lengthAdjust="spacing" textLength="69" x="886" y="123.4795">F -&gt; (*) ID</text><text fill="#000000" font-family="sans-serif" font-size="14" lengthAdjust="spacing" textLength="109" x="1004" y="123.4795">EOF PLUS MULT</text><line style="stroke:#181818;stroke-width:1.0;" x1="999" x2="999" y1="108.4844" y2="128.7813"/><line style="stroke:#181818;stroke-width:1.0;" x1="842" x2="1118" y1="128.7813" y2="128.7813"/><text fill="#000000" font-family="sans-serif" font-size="14" lengthAdjust="spacing" textLength="118" x="861.5" y="143.7764">T -&gt; (*) T MULT F</text><text fill="#000000" font-family="sans-serif" font-size="14" lengthAdjust="spacing" textLength="109" x="1004" y="143.7764">EOF PLUS MULT</text><line style="stroke:#181818;stroke-width:1.0;" x1="999" x2="999" y1="128.7813" y2="149.0781"/><line style="stroke:#181818;stroke-width:1.0;" x1="842" x2="1118" y1="149.0781" y2="149.0781"/><text fill="#000000" font-family="sans-serif" font-size="14" lengthAdjust="spacing" textLength="116" x="862.5" y="164.0732">E -&gt; (*) E PLUS T</text><text fill="#000000" font-family="sans-serif" font-size="14" lengthAdjust="spacing" textLength="67" x="1004" y="164.0732">EOF PLUS</text><line style="stroke:#181818;stroke-width:1.0;" x1="999" x2="999" y1="149.0781" y2="169.375"/></g><g id="elem_1"><rect fill="#F1F1F1" height="40.5938" style="stroke:#181818;stroke-width:0.5;" width="241" x="67.5" y="1173"/><text fill="#000000" font-family="sans-serif" font-size="14" lengthAdjust="spacing" textLength="9" x="183.5" y="1187.9951">1</text><line style="stroke:#181818;stroke-width:1.0;" x1="67.5" x2="308.5" y1="1193.2969" y2="1193.2969"/><text fill="#000000" font-family="sans-serif" font-size="14" lengthAdjust="spacing" textLength="69" x="72.5" y="1208.292">F -&gt; ID (*)</text><text fill="#000000" font-family="sans-serif" font-size="14" lengthAdjust="spacing" textLength="152" x="151.5" y="1208.292">EOF PLUS MULT RPAR</text><line style="stroke:#181818;stroke-width:1.0;" x1="146.5" x2="146.5" y1="1193.2969" y2="1213.5938"/></g><g id="elem_2"><rect fill="#F1F1F1" height="60.8906" style="stroke:#181818;stroke-width:0.5;" width="290" x="524" y="254"/><text fill="#000000" font-family="sans-serif" font-size="14" lengthAdjust="spacing" textLength="8" x="665" y="268.9951">2</text><line style="stroke:#181818;stroke-width:1.0;" x1="524" x2="814" y1="274.2969" y2="274.2969"/><text fill="#000000" font-family="sans-serif" font-size="14" lengthAdjust="spacing" textLength="64" x="556" y="289.292">E -&gt; T (*)</text><text fill="#000000" font-family="sans-serif" font-size="14" lengthAdjust="spacing" textLength="110" x="657" y="289.292">EOF PLUS RPAR</text><line style="stroke:#181818;stroke-width:1.0;" x1="652" x2="652" y1="274.2969" y2="294.5938"/><line style="stroke:#181818;stroke-width:1.0;" x1="524" x2="814" y1="294.5938" y2="294.5938"/><text fill="#000000" font-family="sans-serif" font-size="14" lengthAdjust="spacing" textLength="118" x="529" y="309.5889">T -&gt; T (*) MULT F</text><text fill="#000000" font-family="sans-serif" font-size="14" lengthAdjust="spacing" textLength="152" x="657" y="309.5889">EOF PLUS MULT RPAR</text><line style="stroke:#181818;stroke-width:1.0;" x1="652" x2="652" y1="294.5938" y2="314.8906"/></g><g id="elem_3"><rect fill="#F1F1F1" height="162.375" style="stroke:#181818;stroke-width:0.5;" width="319" x="575.5" y="565"/><text fill="#000000" font-family="sans-serif" font-size="14" lengthAdjust="spacing" textLength="9" x="730.5" y="579.9951">3</text><line style="stroke:#181818;stroke-width:1.0;" x1="575.5" x2="894.5" y1="585.2969" y2="585.2969"/><text fill="#000000" font-family="sans-serif" font-size="14" lengthAdjust="spacing" textLength="147" x="580.5" y="600.292">F -&gt; LPAR (*) E RPAR</text><text fill="#000000" font-family="sans-serif" font-size="14" lengthAdjust="spacing" textLength="152" x="737.5" y="600.292">EOF PLUS MULT RPAR</text><line style="stroke:#181818;stroke-width:1.0;" x1="732.5" x2="732.5" y1="585.2969" y2="605.5938"/><line style="stroke:#181818;stroke-width:1.0;" x1="575.5" x2="894.5" y1="605.5938" y2="605.5938"/><text fill="#000000" font-family="sans-serif" font-size="14" lengthAdjust="spacing" textLength="147" x="580.5" y="620.5889">F -&gt; (*) LPAR E RPAR</text><text fill="#000000" font-family="sans-serif" font-size="14" lengthAdjust="spacing" textLength="120" x="737.5" y="620.5889">PLUS MULT RPAR</text><line style="stroke:#181818;stroke-width:1.0;" x1="732.5" x2="732.5" y1="605.5938" y2="625.8906"/><line style="stroke:#181818;stroke-width:1.0;" x1="575.5" x2="894.5" y1="625.8906" y2="625.8906"/><text fill="#000000" font-family="sans-serif" font-size="14" lengthAdjust="spacing" textLength="64" x="622" y="640.8857">E -&gt; (*) T</text><text fill="#000000" font-family="sans-serif" font-size="14" lengthAdjust="spacing" textLength="78" x="737.5" y="640.8857">PLUS RPAR</text><line style="stroke:#181818;stroke-width:1.0;" x1="732.5" x2="732.5" y1="625.8906" y2="646.1875"/><line style="stroke:#181818;stroke-width:1.0;" x1="575.5" x2="894.5" y1="646.1875" y2="646.1875"/><text fill="#000000" font-family="sans-serif" font-size="14" lengthAdjust="spacing" textLength="63" x="622.5" y="661.1826">T -&gt; (*) F</text><text fill="#000000" font-family="sans-serif" font-size="14" lengthAdjust="spacing" textLength="120" x="737.5" y="661.1826">PLUS MULT RPAR</text><line style="stroke:#181818;stroke-width:1.0;" x1="732.5" x2="732.5" y1="646.1875" y2="666.4844"/><line style="stroke:#181818;stroke-width:1.0;" x1="575.5" x2="894.5" y1="666.4844" y2="666.4844"/><text fill="#000000" font-family="sans-serif" font-size="14" lengthAdjust="spacing" textLength="69" x="619.5" y="681.4795">F -&gt; (*) ID</text><text fill="#000000" font-family="sans-serif" font-size="14" lengthAdjust="spacing" textLength="120" x="737.5" y="681.4795">PLUS MULT RPAR</text><line style="stroke:#181818;stroke-width:1.0;" x1="732.5" x2="732.5" y1="666.4844" y2="686.7813"/><line style="stroke:#181818;stroke-width:1.0;" x1="575.5" x2="894.5" y1="686.7813" y2="686.7813"/><text fill="#000000" font-family="sans-serif" font-size="14" lengthAdjust="spacing" textLength="118" x="595" y="701.7764">T -&gt; (*) T MULT F</text><text fill="#000000" font-family="sans-serif" font-size="14" lengthAdjust="spacing" textLength="120" x="737.5" y="701.7764">PLUS MULT RPAR</text><line style="stroke:#181818;stroke-width:1.0;" x1="732.5" x2="732.5" y1="686.7813" y2="707.0781"/><line style="stroke:#181818;stroke-width:1.0;" x1="575.5" x2="894.5" y1="707.0781" y2="707.0781"/><text fill="#000000" font-family="sans-serif" font-size="14" lengthAdjust="spacing" textLength="116" x="596" y="722.0732">E -&gt; (*) E PLUS T</text><text fill="#000000" font-family="sans-serif" font-size="14" lengthAdjust="spacing" textLength="78" x="737.5" y="722.0732">PLUS RPAR</text><line style="stroke:#181818;stroke-width:1.0;" x1="732.5" x2="732.5" y1="707.0781" y2="727.375"/></g><g id="elem_4"><rect fill="#F1F1F1" height="40.5938" style="stroke:#181818;stroke-width:0.5;" width="235" x="1033.5" y="1173"/><text fill="#000000" font-family="sans-serif" font-size="14" lengthAdjust="spacing" textLength="8" x="1147" y="1187.9951">4</text><line style="stroke:#181818;stroke-width:1.0;" x1="1033.5" x2="1268.5" y1="1193.2969" y2="1193.2969"/><text fill="#000000" font-family="sans-serif" font-size="14" lengthAdjust="spacing" textLength="63" x="1038.5" y="1208.292">T -&gt; F (*)</text><text fill="#000000" font-family="sans-serif" font-size="14" lengthAdjust="spacing" textLength="152" x="1111.5" y="1208.292">EOF PLUS MULT RPAR</text><line style="stroke:#181818;stroke-width:1.0;" x1="1106.5" x2="1106.5" y1="1193.2969" y2="1213.5938"/></g><g id="elem_5"><rect fill="#F1F1F1" height="60.8906" style="stroke:#181818;stroke-width:0.5;" width="229" x="865.5" y="254"/><text fill="#000000" font-family="sans-serif" font-size="14" lengthAdjust="spacing" textLength="9" x="975.5" y="268.9951">5</text><line style="stroke:#181818;stroke-width:1.0;" x1="865.5" x2="1094.5" y1="274.2969" y2="274.2969"/><text fill="#000000" font-family="sans-serif" font-size="14" lengthAdjust="spacing" textLength="142" x="870.5" y="289.292">$START -&gt; E (*) EOF</text><text fill="#000000" font-family="sans-serif" font-size="14" lengthAdjust="spacing" textLength="28" x="1022.5" y="289.292">EOF</text><line style="stroke:#181818;stroke-width:1.0;" x1="1017.5" x2="1017.5" y1="274.2969" y2="294.5938"/><line style="stroke:#181818;stroke-width:1.0;" x1="865.5" x2="1094.5" y1="294.5938" y2="294.5938"/><text fill="#000000" font-family="sans-serif" font-size="14" lengthAdjust="spacing" textLength="116" x="883.5" y="309.5889">E -&gt; E (*) PLUS T</text><text fill="#000000" font-family="sans-serif" font-size="14" lengthAdjust="spacing" textLength="67" x="1022.5" y="309.5889">EOF PLUS</text><line style="stroke:#181818;stroke-width:1.0;" x1="1017.5" x2="1017.5" y1="294.5938" y2="314.8906"/></g><g id="elem_6"><rect fill="#F1F1F1" height="121.7813" style="stroke:#181818;stroke-width:0.5;" width="319" x="770.5" y="957"/><text fill="#000000" font-family="sans-serif" font-size="14" lengthAdjust="spacing" textLength="9" x="925.5" y="971.9951">6</text><line style="stroke:#181818;stroke-width:1.0;" x1="770.5" x2="1089.5" y1="977.2969" y2="977.2969"/><text fill="#000000" font-family="sans-serif" font-size="14" lengthAdjust="spacing" textLength="147" x="775.5" y="992.292">F -&gt; (*) LPAR E RPAR</text><text fill="#000000" font-family="sans-serif" font-size="14" lengthAdjust="spacing" textLength="152" x="932.5" y="992.292">EOF PLUS MULT RPAR</text><line style="stroke:#181818;stroke-width:1.0;" x1="927.5" x2="927.5" y1="977.2969" y2="997.5938"/><line style="stroke:#181818;stroke-width:1.0;" x1="770.5" x2="1089.5" y1="997.5938" y2="997.5938"/><text fill="#000000" font-family="sans-serif" font-size="14" lengthAdjust="spacing" textLength="63" x="817.5" y="1012.5889">T -&gt; (*) F</text><text fill="#000000" font-family="sans-serif" font-size="14" lengthAdjust="spacing" textLength="152" x="932.5" y="1012.5889">EOF PLUS MULT RPAR</text><line style="stroke:#181818;stroke-width:1.0;" x1="927.5" x2="927.5" y1="997.5938" y2="1017.8906"/><line style="stroke:#181818;stroke-width:1.0;" x1="770.5" x2="1089.5" y1="1017.8906" y2="1017.8906"/><text fill="#000000" font-family="sans-serif" font-size="14" lengthAdjust="spacing" textLength="69" x="814.5" y="1032.8857">F -&gt; (*) ID</text><text fill="#000000" font-family="sans-serif" font-size="14" lengthAdjust="spacing" textLength="152" x="932.5" y="1032.8857">EOF PLUS MULT RPAR</text><line style="stroke:#181818;stroke-width:1.0;" x1="927.5" x2="927.5" y1="1017.8906" y2="1038.1875"/><line style="stroke:#181818;stroke-width:1.0;" x1="770.5" x2="1089.5" y1="1038.1875" y2="1038.1875"/><text fill="#000000" font-family="sans-serif" font-size="14" lengthAdjust="spacing" textLength="116" x="791" y="1053.1826">E -&gt; E PLUS (*) T</text><text fill="#000000" font-family="sans-serif" font-size="14" lengthAdjust="spacing" textLength="110" x="932.5" y="1053.1826">EOF PLUS RPAR</text><line style="stroke:#181818;stroke-width:1.0;" x1="927.5" x2="927.5" y1="1038.1875" y2="1058.4844"/><line style="stroke:#181818;stroke-width:1.0;" x1="770.5" x2="1089.5" y1="1058.4844" y2="1058.4844"/><text fill="#000000" font-family="sans-serif" font-size="14" lengthAdjust="spacing" textLength="118" x="790" y="1073.4795">T -&gt; (*) T MULT F</text><text fill="#000000" font-family="sans-serif" font-size="14" lengthAdjust="spacing" textLength="152" x="932.5" y="1073.4795">EOF PLUS MULT RPAR</text><line style="stroke:#181818;stroke-width:1.0;" x1="927.5" x2="927.5" y1="1058.4844" y2="1078.7813"/></g><g id="elem_7"><rect fill="#F1F1F1" height="40.5938" style="stroke:#181818;stroke-width:0.5;" width="190" x="834" y="419.5"/><text fill="#000000" font-family="sans-serif" font-size="14" lengthAdjust="spacing" textLength="9" x="924.5" y="434.4951">7</text><line style="stroke:#181818;stroke-width:1.0;" x1="834" x2="1024" y1="439.7969" y2="439.7969"/><text fill="#000000" font-family="sans-serif" font-size="14" lengthAdjust="spacing" textLength="142" x="839" y="454.792">$START -&gt; E EOF (*)</text><text fill="#000000" font-family="sans-serif" font-size="14" lengthAdjust="spacing" textLength="28" x="991" y="454.792">EOF</text><line style="stroke:#181818;stroke-width:1.0;" x1="986" x2="986" y1="439.7969" y2="460.0938"/></g><g id="elem_8"><rect fill="#F1F1F1" height="60.8906" style="stroke:#181818;stroke-width:0.5;" width="290" x="583" y="1163"/><text fill="#000000" font-family="sans-serif" font-size="14" lengthAdjust="spacing" textLength="8" x="724" y="1177.9951">8</text><line style="stroke:#181818;stroke-width:1.0;" x1="583" x2="873" y1="1183.2969" y2="1183.2969"/><text fill="#000000" font-family="sans-serif" font-size="14" lengthAdjust="spacing" textLength="116" x="589" y="1198.292">E -&gt; E PLUS T (*)</text><text fill="#000000" font-family="sans-serif" font-size="14" lengthAdjust="spacing" textLength="110" x="716" y="1198.292">EOF PLUS RPAR</text><line style="stroke:#181818;stroke-width:1.0;" x1="711" x2="711" y1="1183.2969" y2="1203.5938"/><line style="stroke:#181818;stroke-width:1.0;" x1="583" x2="873" y1="1203.5938" y2="1203.5938"/><text fill="#000000" font-family="sans-serif" font-size="14" lengthAdjust="spacing" textLength="118" x="588" y="1218.5889">T -&gt; T (*) MULT F</text><text fill="#000000" font-family="sans-serif" font-size="14" lengthAdjust="spacing" textLength="152" x="716" y="1218.5889">EOF PLUS MULT RPAR</text><line style="stroke:#181818;stroke-width:1.0;" x1="711" x2="711" y1="1203.5938" y2="1223.8906"/></g><g id="elem_9"><rect fill="#F1F1F1" height="81.1875" style="stroke:#181818;stroke-width:0.5;" width="319" x="337.5" y="399"/><text fill="#000000" font-family="sans-serif" font-size="14" lengthAdjust="spacing" textLength="9" x="492.5" y="413.9951">9</text><line style="stroke:#181818;stroke-width:1.0;" x1="337.5" x2="656.5" y1="419.2969" y2="419.2969"/><text fill="#000000" font-family="sans-serif" font-size="14" lengthAdjust="spacing" textLength="147" x="342.5" y="434.292">F -&gt; (*) LPAR E RPAR</text><text fill="#000000" font-family="sans-serif" font-size="14" lengthAdjust="spacing" textLength="152" x="499.5" y="434.292">EOF PLUS MULT RPAR</text><line style="stroke:#181818;stroke-width:1.0;" x1="494.5" x2="494.5" y1="419.2969" y2="439.5938"/><line style="stroke:#181818;stroke-width:1.0;" x1="337.5" x2="656.5" y1="439.5938" y2="439.5938"/><text fill="#000000" font-family="sans-serif" font-size="14" lengthAdjust="spacing" textLength="118" x="357" y="454.5889">T -&gt; T MULT (*) F</text><text fill="#000000" font-family="sans-serif" font-size="14" lengthAdjust="spacing" textLength="152" x="499.5" y="454.5889">EOF PLUS MULT RPAR</text><line style="stroke:#181818;stroke-width:1.0;" x1="494.5" x2="494.5" y1="439.5938" y2="459.8906"/><line style="stroke:#181818;stroke-width:1.0;" x1="337.5" x2="656.5" y1="459.8906" y2="459.8906"/><text fill="#000000" font-family="sans-serif" font-size="14" lengthAdjust="spacing" textLength="69" x="381.5" y="474.8857">F -&gt; (*) ID</text><text fill="#000000" font-family="sans-serif" font-size="14" lengthAdjust="spacing" textLength="152" x="499.5" y="474.8857">EOF PLUS MULT RPAR</text><line style="stroke:#181818;stroke-width:1.0;" x1="494.5" x2="494.5" y1="459.8906" y2="480.1875"/></g><g id="elem_10"><rect fill="#F1F1F1" height="40.5938" style="stroke:#181818;stroke-width:0.5;" width="290" x="155" y="626"/><text fill="#000000" font-family="sans-serif" font-size="14" lengthAdjust="spacing" textLength="18" x="291" y="640.9951">10</text><line style="stroke:#181818;stroke-width:1.0;" x1="155" x2="445" y1="646.2969" y2="646.2969"/><text fill="#000000" font-family="sans-serif" font-size="14" lengthAdjust="spacing" textLength="118" x="160" y="661.292">T -&gt; T MULT F (*)</text><text fill="#000000" font-family="sans-serif" font-size="14" lengthAdjust="spacing" textLength="152" x="288" y="661.292">EOF PLUS MULT RPAR</text><line style="stroke:#181818;stroke-width:1.0;" x1="283" x2="283" y1="646.2969" y2="666.5938"/></g><g id="elem_11"><rect fill="#F1F1F1" height="60.8906" style="stroke:#181818;stroke-width:0.5;" width="319" x="528.5" y="812"/><text fill="#000000" font-family="sans-serif" font-size="14" lengthAdjust="spacing" textLength="18" x="679" y="826.9951">11</text><line style="stroke:#181818;stroke-width:1.0;" x1="528.5" x2="847.5" y1="832.2969" y2="832.2969"/><text fill="#000000" font-family="sans-serif" font-size="14" lengthAdjust="spacing" textLength="116" x="549" y="847.292">E -&gt; E (*) PLUS T</text><text fill="#000000" font-family="sans-serif" font-size="14" lengthAdjust="spacing" textLength="78" x="690.5" y="847.292">PLUS RPAR</text><line style="stroke:#181818;stroke-width:1.0;" x1="685.5" x2="685.5" y1="832.2969" y2="852.5938"/><line style="stroke:#181818;stroke-width:1.0;" x1="528.5" x2="847.5" y1="852.5938" y2="852.5938"/><text fill="#000000" font-family="sans-serif" font-size="14" lengthAdjust="spacing" textLength="147" x="533.5" y="867.5889">F -&gt; LPAR E (*) RPAR</text><text fill="#000000" font-family="sans-serif" font-size="14" lengthAdjust="spacing" textLength="152" x="690.5" y="867.5889">EOF PLUS MULT RPAR</text><line style="stroke:#181818;stroke-width:1.0;" x1="685.5" x2="685.5" y1="852.5938" y2="872.8906"/></g><g id="elem_12"><rect fill="#F1F1F1" height="40.5938" style="stroke:#181818;stroke-width:0.5;" width="319" x="400.5" y="997.5"/><text fill="#000000" font-family="sans-serif" font-size="14" lengthAdjust="spacing" textLength="17" x="551.5" y="1012.4951">12</text><line style="stroke:#181818;stroke-width:1.0;" x1="400.5" x2="719.5" y1="1017.7969" y2="1017.7969"/><text fill="#000000" font-family="sans-serif" font-size="14" lengthAdjust="spacing" textLength="147" x="405.5" y="1032.792">F -&gt; LPAR E RPAR (*)</text><text fill="#000000" font-family="sans-serif" font-size="14" lengthAdjust="spacing" textLength="152" x="562.5" y="1032.792">EOF PLUS MULT RPAR</text><line style="stroke:#181818;stroke-width:1.0;" x1="557.5" x2="557.5" y1="1017.7969" y2="1038.0938"/></g><!--link 0 to 5--><g id="link_0_5"><path codeLine="62" d="M980,173.24 C980,200.24 980,222.577 980,243.695 " fill="none" id="0-to-5" style="stroke:#181818;stroke-width:1.0;"/><polygon fill="#181818" points="980,249.695,984,240.695,980,244.695,976,240.695,980,249.695" style="stroke:#181818;stroke-width:1.0;"/><text fill="#000000" font-family="sans-serif" font-size="13" lengthAdjust="spacing" textLength="8" x="981" y="216.0669">E</text></g><!--link 0 to 4--><g id="link_0_4"><path codeLine="63" d="M1126.18,145.92 C1179.51,176.96 1227,221.79 1227,283 C1227,283 1227,283 1227,1018.5 C1227,1076.541 1194.3163,1132.1101 1171.8863,1164.0765 " fill="none" id="0-to-4" style="stroke:#181818;stroke-width:1.0;"/><polygon fill="#181818" points="1168.44,1168.988,1176.8838,1163.9182,1171.3119,1164.8951,1170.3351,1159.3232,1168.44,1168.988" style="stroke:#181818;stroke-width:1.0;"/><text fill="#000000" font-family="sans-serif" font-size="13" lengthAdjust="spacing" textLength="7" x="1228" y="650.5669">F</text></g><!--link 0 to 3--><g id="link_0_3"><path codeLine="64" d="M1072.81,173.3 C1092.06,196.11 1109.62,222.24 1120,250 C1137.96,298.019 1127.84,316.578 1111,365 C1091.41,421.326 1091.31,441.968 1049,484 C1007.82,524.91 959.5076,554.9696 908.1826,579.9106 " fill="none" id="0-to-3" style="stroke:#181818;stroke-width:1.0;"/><polygon fill="#181818" points="902.786,582.533,912.6291,582.1971,907.2831,580.3476,909.1326,575.0017,902.786,582.533" style="stroke:#181818;stroke-width:1.0;"/><text fill="#000000" font-family="sans-serif" font-size="13" lengthAdjust="spacing" textLength="33" x="1118" y="361.0669">LPAR</text></g><!--link 0 to 2--><g id="link_0_2"><path codeLine="65" d="M844.948,173.24 C801.507,200.34 760.9907,225.6163 727.0977,246.7593 " fill="none" id="0-to-2" style="stroke:#181818;stroke-width:1.0;"/><polygon fill="#181818" points="722.007,249.935,731.7602,248.5653,726.2492,247.2886,727.5259,241.7777,722.007,249.935" style="stroke:#181818;stroke-width:1.0;"/><text fill="#000000" font-family="sans-serif" font-size="13" lengthAdjust="spacing" textLength="8" x="798" y="216.0669">T</text></g><!--link 0 to 1--><g id="link_0_1"><path codeLine="66" d="M833.919,103.16 C562.11,131.48 6,199.62 6,283 C6,283 6,283 6,1018.5 C6,1090.311 75.8041,1138.747 129.5241,1166.1458 " fill="none" id="0-to-1" style="stroke:#181818;stroke-width:1.0;"/><polygon fill="#181818" points="134.869,1168.8719,128.669,1161.2195,130.4149,1166.6002,125.0342,1168.3461,134.869,1168.8719" style="stroke:#181818;stroke-width:1.0;"/><text fill="#000000" font-family="sans-serif" font-size="13" lengthAdjust="spacing" textLength="13" x="7" y="650.5669">ID</text></g><!--link 2 to 9--><g id="link_2_9"><path codeLine="67" d="M631.679,318.307 C606.583,340.704 577.7176,366.464 550.4876,390.765 " fill="none" id="2-to-9" style="stroke:#181818;stroke-width:1.0;"/><polygon fill="#181818" points="546.011,394.76,555.3892,391.7518,549.7415,391.4308,550.0625,385.7831,546.011,394.76" style="stroke:#181818;stroke-width:1.0;"/><text fill="#000000" font-family="sans-serif" font-size="13" lengthAdjust="spacing" textLength="34" x="600" y="361.0669">MULT</text></g><!--link 3 to 11--><g id="link_3_11"><path codeLine="68" d="M714.59,731.245 C708.05,758.24 702.5977,780.7457 697.4817,801.8637 " fill="none" id="3-to-11" style="stroke:#181818;stroke-width:1.0;"/><polygon fill="#181818" points="696.069,807.695,702.0756,799.8898,697.2462,802.8356,694.3005,798.0062,696.069,807.695" style="stroke:#181818;stroke-width:1.0;"/><text fill="#000000" font-family="sans-serif" font-size="13" lengthAdjust="spacing" textLength="8" x="709" y="774.0669">E</text></g><!--link 3 to 4--><g id="link_3_4"><path codeLine="69" d="M888.773,731.153 C969.804,783.893 1062.94,859.593 1115,953 C1154.53,1023.922 1155.1634,1118.1832 1152.9734,1162.9083 " fill="none" id="3-to-4" style="stroke:#181818;stroke-width:1.0;"/><polygon fill="#181818" points="1152.68,1168.9011,1157.1154,1160.1075,1152.9245,1163.9071,1149.125,1159.7162,1152.68,1168.9011" style="stroke:#181818;stroke-width:1.0;"/><text fill="#000000" font-family="sans-serif" font-size="13" lengthAdjust="spacing" textLength="7" x="1095" y="919.0669">F</text></g><!--link 3 to 3--><g id="link_3_3"><path codeLine="70" d="M902.602,626.079 C923.649,629.59 937.5,636.23 937.5,646 C937.5,655.77 929.5672,661.4227 908.5202,664.9337 " fill="none" id="3-to-3" style="stroke:#181818;stroke-width:1.0;"/><polygon fill="#181818" points="902.602,665.921,912.1375,668.3856,907.5338,665.0983,910.8212,660.4946,902.602,665.921" style="stroke:#181818;stroke-width:1.0;"/><text fill="#000000" font-family="sans-serif" font-size="13" lengthAdjust="spacing" textLength="33" x="943.5" y="650.5669">LPAR</text></g><!--link 3 to 2--><g id="link_3_2"><path codeLine="71" d="M719.547,560.71 C705.374,483.401 686.1929,378.7806 676.1729,324.1246 " fill="none" id="3-to-2" style="stroke:#181818;stroke-width:1.0;"/><polygon fill="#181818" points="675.091,318.223,672.7795,327.7968,675.9926,323.141,680.6483,326.3542,675.091,318.223" style="stroke:#181818;stroke-width:1.0;"/><text fill="#000000" font-family="sans-serif" font-size="13" lengthAdjust="spacing" textLength="8" x="707" y="444.0669">T</text></g><!--link 3 to 1--><g id="link_3_1"><path codeLine="72" d="M601.998,731.144 C568.475,754.518 533.4,780.951 503,808 C369.33,926.934 248.7258,1100.3534 206.5658,1163.6861 " fill="none" id="3-to-1" style="stroke:#181818;stroke-width:1.0;"/><polygon fill="#181818" points="203.241,1168.6807,211.5579,1163.4054,206.0117,1164.5186,204.8985,1158.9723,203.241,1168.6807" style="stroke:#181818;stroke-width:1.0;"/><text fill="#000000" font-family="sans-serif" font-size="13" lengthAdjust="spacing" textLength="13" x="405" y="919.0669">ID</text></g><!--link 5 to 7--><g id="link_5_7"><path codeLine="73" d="M968.934,318.307 C959.208,347.581 947.1958,383.734 938.6218,409.54 " fill="none" id="5-to-7" style="stroke:#181818;stroke-width:1.0;"/><polygon fill="#181818" points="936.73,415.234,943.3637,407.9543,938.3065,410.489,935.7717,405.4319,936.73,415.234" style="stroke:#181818;stroke-width:1.0;"/><text fill="#000000" font-family="sans-serif" font-size="13" lengthAdjust="spacing" textLength="25" x="961" y="361.0669">EOF</text></g><!--link 5 to 6--><g id="link_5_6"><path codeLine="74" d="M1020,318.106 C1049.67,346.581 1085,390.553 1085,438.5 C1085,438.5 1085,438.5 1085,843 C1085,879.875 1084.22,892.843 1063,923 C1055.37,933.849 1050.5063,939.8483 1040.3863,948.9723 " fill="none" id="5-to-6" style="stroke:#181818;stroke-width:1.0;"/><polygon fill="#181818" points="1035.93,952.99,1045.2928,949.9343,1039.6435,949.6419,1039.9359,943.9926,1035.93,952.99" style="stroke:#181818;stroke-width:1.0;"/><text fill="#000000" font-family="sans-serif" font-size="13" lengthAdjust="spacing" textLength="32" x="1086" y="650.5669">PLUS</text></g><!--link 6 to 4--><g id="link_6_4"><path codeLine="75" d="M1011.04,1082.12 C1049.6,1112.391 1088.6007,1143.0103 1116.7607,1165.1194 " fill="none" id="6-to-4" style="stroke:#181818;stroke-width:1.0;"/><polygon fill="#181818" points="1121.48,1168.8246,1116.8712,1160.1206,1117.5473,1165.7369,1111.931,1166.413,1121.48,1168.8246" style="stroke:#181818;stroke-width:1.0;"/><text fill="#000000" font-family="sans-serif" font-size="13" lengthAdjust="spacing" textLength="7" x="1068" y="1125.0669">F</text></g><!--link 6 to 3--><g id="link_6_3"><path codeLine="76" d="M920.119,952.667 C911.723,909.935 897.093,853.416 873,808 C858.681,781.007 843.0263,759.1653 823.1553,735.7923 " fill="none" id="6-to-3" style="stroke:#181818;stroke-width:1.0;"/><polygon fill="#181818" points="819.269,731.221,822.051,740.6688,822.5076,735.0304,828.146,735.487,819.269,731.221" style="stroke:#181818;stroke-width:1.0;"/><text fill="#000000" font-family="sans-serif" font-size="13" lengthAdjust="spacing" textLength="33" x="902" y="846.5669">LPAR</text></g><!--link 6 to 8--><g id="link_6_8"><path codeLine="77" d="M855.93,1082.12 C825.641,1108.135 796.4176,1133.2359 771.1796,1154.9123 " fill="none" id="6-to-8" style="stroke:#181818;stroke-width:1.0;"/><polygon fill="#181818" points="766.628,1158.8216,776.0616,1155.9921,770.421,1155.5638,770.8492,1149.9232,766.628,1158.8216" style="stroke:#181818;stroke-width:1.0;"/><text fill="#000000" font-family="sans-serif" font-size="13" lengthAdjust="spacing" textLength="8" x="818" y="1125.0669">T</text></g><!--link 6 to 1--><g id="link_6_1"><path codeLine="78" d="M762.418,1077.13 C756.557,1078.827 750.738,1080.456 745,1082 C599.962,1121.02 436.1646,1151.5636 322.5326,1170.7043 " fill="none" id="6-to-1" style="stroke:#181818;stroke-width:1.0;"/><polygon fill="#181818" points="316.616,1171.7009,326.1554,1174.1504,321.5465,1170.8704,324.8266,1166.2615,316.616,1171.7009" style="stroke:#181818;stroke-width:1.0;"/><text fill="#000000" font-family="sans-serif" font-size="13" lengthAdjust="spacing" textLength="13" x="610" y="1125.0669">ID</text></g><!--link 8 to 9--><g id="link_8_9"><path codeLine="79" d="M574.568,1162.9346 C491.07,1143.662 399.824,1115.736 375,1082 C302.688,983.725 338.459,917.637 392,808 C413.376,764.228 449.152,775.026 470,731 C508.153,650.431 507.0831,549.3192 502.3911,490.2532 " fill="none" id="8-to-9" style="stroke:#181818;stroke-width:1.0;"/><polygon fill="#181818" points="501.916,484.272,498.6412,493.5605,502.3119,489.2563,506.6161,492.927,501.916,484.272" style="stroke:#181818;stroke-width:1.0;"/><text fill="#000000" font-family="sans-serif" font-size="13" lengthAdjust="spacing" textLength="34" x="393" y="846.5669">MULT</text></g><!--link 9 to 10--><g id="link_9_10"><path codeLine="80" d="M454.98,484.12 C414.413,526.232 358.7027,584.0629 326.5417,617.4479 " fill="none" id="9-to-10" style="stroke:#181818;stroke-width:1.0;"/><polygon fill="#181818" points="322.379,621.769,331.5038,618.0625,325.8479,618.1681,325.7423,612.5122,322.379,621.769" style="stroke:#181818;stroke-width:1.0;"/><text fill="#000000" font-family="sans-serif" font-size="13" lengthAdjust="spacing" textLength="7" x="423" y="527.0669">F</text></g><!--link 9 to 3--><g id="link_9_3"><path codeLine="81" d="M547.765,484.12 C573.704,506.407 601.6242,530.3978 632.2082,556.6768 " fill="none" id="9-to-3" style="stroke:#181818;stroke-width:1.0;"/><polygon fill="#181818" points="636.759,560.587,632.5396,551.6877,632.9666,557.3285,627.3259,557.7555,636.759,560.587" style="stroke:#181818;stroke-width:1.0;"/><text fill="#000000" font-family="sans-serif" font-size="13" lengthAdjust="spacing" textLength="33" x="603" y="527.0669">LPAR</text></g><!--link 9 to 1--><g id="link_9_1"><path codeLine="82" d="M329.301,459.58 C218.65,482.588 94,533.296 94,645 C94,645 94,645 94,1018.5 C94,1078.452 133.9471,1133.0241 161.7441,1164.3979 " fill="none" id="9-to-1" style="stroke:#181818;stroke-width:1.0;"/><polygon fill="#181818" points="165.723,1168.8888,162.7486,1159.4998,162.4072,1165.1464,156.7607,1164.8051,165.723,1168.8888" style="stroke:#181818;stroke-width:1.0;"/><text fill="#000000" font-family="sans-serif" font-size="13" lengthAdjust="spacing" textLength="13" x="95" y="846.5669">ID</text></g><!--link 11 to 12--><g id="link_11_12"><path codeLine="83" d="M663.623,876.042 C638.308,910.356 602.9201,958.3238 580.6851,988.4618 " fill="none" id="11-to-12" style="stroke:#181818;stroke-width:1.0;"/><polygon fill="#181818" points="577.123,993.29,585.685,988.4225,580.0914,989.2665,579.2474,983.673,577.123,993.29" style="stroke:#181818;stroke-width:1.0;"/><text fill="#000000" font-family="sans-serif" font-size="13" lengthAdjust="spacing" textLength="35" x="641" y="919.0669">RPAR</text></g><!--link 11 to 6--><g id="link_11_6"><path codeLine="84" d="M734.088,876.042 C764.258,897.673 799.7957,923.151 836.0807,949.165 " fill="none" id="11-to-6" style="stroke:#181818;stroke-width:1.0;"/><polygon fill="#181818" points="840.957,952.661,835.9732,944.1662,836.8934,949.7477,831.3119,950.6679,840.957,952.661" style="stroke:#181818;stroke-width:1.0;"/><text fill="#000000" font-family="sans-serif" font-size="13" lengthAdjust="spacing" textLength="32" x="796" y="919.0669">PLUS</text></g><!--SRC=[hLJDQiCm3BxdANJOOHiKuhX9ay4AXTamo5X9tGVe0nHs7tltoPOToqcSZcsdwEVpP-cJdElb0qhuB3Hizd3_-03zyJ20Wi5-dlUWtZKS-_C9tiwzWK85c4cIXGbnlN3excGEmuXGBkrHyTxNbuMJ9bxd0dgj94NHIMLVnHLR5A55lCPYPpIkNm-k4EnOpGnBC1EJkR8udmoNEssfr6LzwLHk5bDSEenfVUCqilGa-JIzg7dsQYuwgu0QtsBZZaxV5hr6R5mKHUHiKLGCvyVS_7YJbuHQdSNIVZ8jl0xpfx4YQbwCtKGCYsGAUbGRzdGSmh-iQ_SR4NrVVzNIlzOoBCuerytz4IAgaIu9KoA-GWAjjULfg-JnUYLMgoatYAxX2S5aRz7MtfPeEoPoAtIDjmNQg4nHMQT3X_vlqkK4yKd69rC-oVWavwkjixFdxUeuhq6Ftat329kKqBaj4JQSi4qBx5ok98ukvUZuEI6SPsiahIWGYla6]--></g></svg>